<svg xmlns="http://www.w3.org/2000/svg" version="1.0" width="1920.000000pt" height="1080.000000pt" viewBox="0 0 1920.000000 1080.000000" preserveAspectRatio="xMidYMid meet">

<g transform="translate(0.000000,1080.000000) scale(0.100000,-0.100000)" fill="#33505e" stroke="none">
<path d="M265 10723 c13 -43 42 -138 65 -212 23 -74 61 -202 85 -285 132 -457 207 -703 272 -899 31 -92 53 -170 50 -173 -3 -4 -171 -7 -372 -7 l-365 0 0 -26 0 -27 2296 3 2296 2 -6 -32 c-3 -18 -24 -160 -46 -316 -23 -156 -43 -288 -46 -293 -3 -4 -1015 -8 -2250 -8 l-2244 0 0 -25 0 -25 2248 -3 2247 -2 -2247 -3 c-2241 -2 -2248 -2 -2248 -22 0 -18 7 -20 88 -20 48 0 1056 0 2241 0 l2154 0 -6 -58 c-4 -31 -20 -174 -36 -317 -17 -143 -39 -359 -51 -480 -11 -121 -22 -240 -24 -265 -3 -25 -10 -103 -16 -175 -6 -71 -15 -175 -20 -230 -5 -55 -12 -140 -15 -190 -3 -49 -8 -117 -11 -150 -15 -195 -36 -505 -49 -745 -8 -151 -17 -311 -20 -355 -6 -112 -13 -271 -25 -555 -5 -135 -12 -288 -15 -340 -2 -52 -7 -198 -11 -325 -4 -126 -10 -309 -14 -405 -3 -96 -8 -278 -9 -405 -1 -126 -3 -230 -4 -231 -1 -1 -152 -4 -334 -8 l-333 -5 0 1562 0 1562 -43 26 c-103 65 -85 62 -376 54 -146 -4 -284 -8 -306 -10 -22 -2 -119 -6 -215 -9 -96 -4 -220 -8 -275 -11 -55 -3 -172 -7 -260 -10 -484 -16 -763 -25 -865 -30 -262 -11 -358 -16 -420 -20 -36 -2 -173 -9 -305 -15 -355 -16 -425 -21 -425 -31 0 -5 17 -9 38 -10 113 -1 506 2 511 5 3 2 100 7 216 10 116 4 228 9 250 11 40 4 121 6 720 25 376 12 539 18 755 31 91 5 308 9 482 9 l318 0 -5 -27 c-7 -41 -33 -410 -45 -623 -22 -422 -33 -869 -34 -1425 -1 -548 11 -1472 19 -1498 2 -7 6 -113 9 -237 4 -124 8 -259 11 -300 3 -41 7 -151 10 -245 3 -93 12 -282 20 -420 18 -311 18 -305 0 -305 -8 0 -63 16 -122 35 -93 31 -263 82 -383 115 -105 28 -224 66 -290 92 l-75 28 -3 392 -4 392 -24 48 c-29 57 -68 84 -134 93 -66 9 -114 -12 -128 -57 -6 -19 -13 -191 -16 -407 -3 -206 -8 -376 -10 -378 -2 -2 -111 28 -242 66 -329 94 -437 125 -594 165 -74 19 -189 48 -255 65 -261 68 -635 162 -780 196 -55 13 -126 30 -157 38 -48 12 -58 13 -58 2 0 -8 4 -16 9 -20 9 -5 173 -54 226 -68 11 -2 94 -25 185 -50 91 -25 289 -77 440 -117 563 -148 1143 -309 1174 -327 13 -7 6 -21 -49 -86 -59 -71 -101 -128 -253 -332 -29 -40 -71 -82 -97 -98 -49 -31 -64 -63 -49 -106 10 -29 97 -81 178 -106 48 -15 48 -14 105 18 48 28 74 57 191 213 74 99 169 227 210 284 102 141 92 133 150 110 50 -20 169 -54 480 -140 96 -26 222 -62 280 -79 l105 -30 93 19 c52 10 100 24 108 31 9 7 14 31 14 65 0 51 1 54 23 49 59 -12 273 -45 298 -45 l29 0 0 -625 0 -625 35 0 35 0 0 380 0 380 42 21 c134 68 254 175 335 298 1 2 145 -71 320 -162 175 -91 360 -186 412 -211 l95 -46 728 0 729 0 -3 151 -3 151 -125 57 c-130 60 -162 73 -625 268 l-280 118 -677 3 -678 3 0 -104 0 -103 -68 -85 c-45 -56 -89 -98 -132 -127 l-65 -42 -5 159 c-3 88 -8 163 -12 166 -8 8 -31 13 -238 50 -80 14 -153 28 -162 31 -17 5 -18 44 -18 645 l0 639 303 0 302 -1 -32 -28 c-17 -16 -36 -38 -42 -49 -7 -13 -11 -88 -11 -191 l0 -171 2160 0 2160 0 0 184 0 184 -42 36 -43 36 1041 0 1041 0 6 -98 c4 -53 7 -198 7 -321 l0 -223 -27 6 c-155 36 -333 15 -333 -39 0 -10 -9 -12 -35 -8 -29 5 -39 1 -66 -26 -30 -31 -31 -33 -27 -109 4 -89 41 -182 89 -228 17 -16 29 -38 29 -53 0 -34 76 -104 136 -125 99 -34 241 -12 288 45 23 27 26 40 26 104 l0 73 82 -24 c44 -13 89 -31 99 -40 24 -22 104 -44 159 -44 27 0 88 -11 136 -24 178 -48 624 -165 839 -221 121 -32 267 -70 325 -86 58 -16 130 -36 160 -44 85 -23 339 -94 395 -110 28 -8 104 -30 170 -49 66 -19 298 -85 515 -146 352 -100 603 -173 1025 -301 72 -21 227 -68 345 -103 118 -35 283 -86 365 -111 83 -26 170 -53 195 -60 103 -29 231 -69 515 -160 371 -119 353 -115 450 -114 l80 0 -70 22 -70 23 -2 174 c-7 601 -7 1899 0 2025 10 186 42 454 62 520 34 113 49 152 72 192 21 37 30 43 70 49 103 15 342 -34 464 -96 187 -96 364 -270 449 -444 27 -54 30 -67 20 -86 -15 -29 -122 -77 -287 -130 -126 -41 -131 -44 -138 -74 -3 -17 -9 -514 -12 -1103 l-5 -1073 24 0 25 0 6 257 c4 141 7 633 7 1093 l0 837 39 7 c60 9 251 74 296 101 23 13 93 42 155 65 63 23 176 63 250 90 340 121 508 184 608 226 89 37 114 44 146 38 l39 -6 -6 -187 c-4 -102 -7 -214 -7 -247 l0 -62 -42 -17 c-24 -9 -56 -23 -73 -30 -46 -21 -313 -126 -465 -183 -323 -120 -520 -192 -524 -192 -14 0 -98 -41 -93 -46 17 -17 561 160 862 281 183 73 534 219 623 259 56 25 108 46 115 46 7 0 29 8 49 19 21 10 48 16 63 14 23 -5 25 -10 25 -53 l0 -47 -77 -6 c-142 -12 -299 -69 -344 -125 -13 -18 -19 -41 -19 -79 0 -30 4 -52 9 -49 4 3 19 -7 32 -21 l24 -27 -28 18 c-43 27 -45 11 -3 -29 45 -42 138 -87 231 -111 123 -32 425 -20 425 17 0 5 -19 10 -42 10 -24 1 -34 3 -23 6 11 2 30 6 42 9 17 3 23 12 23 30 0 23 -3 25 -22 20 -13 -4 -66 -9 -118 -13 -199 -12 -481 58 -510 127 -17 40 -9 80 20 102 30 22 174 53 294 63 l86 7 0 -48 c0 -31 6 -54 17 -66 16 -18 16 -18 -3 -12 -31 11 -43 24 -37 40 3 8 0 14 -5 14 -20 0 -24 -41 -7 -60 56 -62 226 -39 201 26 -6 16 -8 16 -21 -3 -14 -20 -59 -36 -70 -25 -3 3 5 10 18 16 18 9 23 21 25 65 l3 54 65 -7 c63 -6 64 -6 64 18 0 23 -5 25 -65 31 l-65 7 0 49 0 48 65 -6 65 -6 0 27 c0 20 -5 27 -18 25 -9 -1 -38 -1 -64 0 l-47 1 -3 115 c-3 113 -3 115 20 116 12 1 27 3 32 4 6 1 26 3 45 4 28 1 35 5 35 21 0 19 -7 20 -116 20 -144 0 -311 18 -564 61 -75 13 -140 43 -140 64 0 19 -7 20 80 -10 174 -59 442 -99 630 -93 100 3 105 4 108 26 3 22 1 22 -100 22 -124 1 -181 6 -363 31 -234 33 -325 56 -325 82 0 12 141 280 213 407 33 58 87 154 120 213 39 71 64 107 73 103 77 -30 221 -42 313 -26 94 16 94 34 -1 26 -76 -6 -297 9 -310 22 -4 4 -4 13 0 19 6 10 24 8 77 -7 48 -14 97 -20 155 -19 121 2 144 8 148 41 3 26 2 27 -30 17 -44 -12 -238 -12 -238 1 0 6 27 10 60 10 33 0 60 4 60 10 0 15 -57 12 -123 -5 -67 -17 -77 -18 -77 -6 0 27 271 40 333 15 16 -6 18 -3 15 17 -3 22 -10 25 -75 33 l-73 9 -2 766 c0 421 -3 804 -4 851 -14 366 -5 2632 11 2770 1 14 6 169 10 345 3 176 9 343 11 370 8 90 5 1248 -3 1256 -8 7 -357 -77 -563 -136 -52 -15 -108 -31 -125 -35 -16 -4 -172 -49 -345 -100 -173 -50 -335 -98 -360 -105 -25 -7 -139 -42 -255 -78 -115 -36 -248 -77 -295 -90 -112 -34 -287 -86 -435 -132 -107 -33 -355 -106 -475 -141 -25 -7 -106 -30 -180 -52 -74 -22 -178 -52 -230 -67 -52 -14 -117 -33 -145 -41 -181 -51 -248 -70 -650 -183 -55 -16 -208 -59 -340 -95 -132 -37 -267 -75 -300 -85 -33 -10 -89 -27 -125 -36 -36 -10 -101 -28 -145 -41 -44 -13 -204 -57 -355 -99 -151 -42 -324 -90 -385 -107 -389 -108 -793 -230 -990 -300 -77 -27 -191 -66 -252 -86 -130 -43 -158 -67 -40 -35 21 6 22 25 -3 -332 -34 -500 -47 -1072 -55 -2328 -5 -709 -6 -729 -25 -768 -42 -82 -120 -358 -120 -424 0 -21 -37 -65 -55 -65 -4 0 -145 -45 -313 -100 -167 -56 -306 -99 -308 -97 -2 2 -5 1023 -6 2268 l-3 2265 55 23 c75 31 328 118 730 250 721 236 1361 466 2025 726 426 167 506 198 755 295 345 133 674 256 990 370 140 50 273 98 295 107 47 18 600 213 905 320 118 41 314 109 434 151 l220 77 -62 3 c-67 3 -67 3 -397 -113 -88 -31 -178 -63 -200 -70 -53 -17 -351 -123 -495 -175 -63 -23 -133 -48 -155 -55 -93 -31 -472 -168 -910 -330 -268 -100 -310 -115 -555 -210 -124 -48 -252 -98 -285 -111 -33 -12 -244 -95 -470 -184 -653 -258 -1089 -419 -1665 -615 -85 -29 -353 -120 -595 -203 -420 -143 -556 -191 -600 -212 -17 -8 -278 -20 -271 -12 2 1 41 17 87 36 46 19 165 69 264 111 230 98 582 232 790 300 307 100 987 344 1540 551 187 70 363 135 390 145 28 10 109 40 180 67 257 98 592 225 705 267 63 23 295 110 515 193 860 322 1014 379 1240 461 88 32 220 80 294 107 l134 49 -59 3 c-62 3 -123 -16 -554 -176 -74 -28 -180 -67 -235 -87 -247 -90 -1192 -445 -1335 -500 -47 -18 -116 -44 -155 -58 -38 -14 -131 -49 -205 -77 -1251 -479 -1873 -709 -2405 -890 -292 -99 -572 -206 -790 -300 -399 -174 -603 -260 -617 -260 -4 0 -8 149 -8 330 0 257 3 330 13 330 6 0 23 6 37 13 14 7 68 28 120 46 90 32 334 122 485 181 39 15 160 62 270 104 110 42 216 83 235 91 31 13 137 53 315 120 407 152 1228 477 1715 678 173 71 374 153 445 182 72 29 175 72 230 95 55 23 174 71 264 108 162 66 163 67 117 70 -40 3 -81 -10 -264 -84 -119 -48 -235 -95 -257 -104 -22 -10 -125 -52 -230 -95 -104 -43 -242 -99 -305 -125 -139 -58 -853 -344 -965 -388 -44 -16 -145 -56 -225 -87 -217 -85 -264 -103 -335 -130 -36 -14 -93 -36 -127 -49 -35 -14 -142 -55 -238 -91 -96 -36 -203 -77 -237 -91 -35 -13 -93 -36 -130 -50 -38 -14 -136 -53 -220 -87 -84 -34 -155 -59 -158 -55 -6 5 52 129 203 438 255 522 376 767 436 878 l66 122 -28 0 c-24 0 -33 -11 -84 -102 -119 -216 -422 -834 -548 -1118 -21 -47 -56 -123 -79 -170 l-41 -85 -78 -33 c-108 -46 -183 -75 -187 -70 -2 1 51 118 116 258 66 140 128 273 138 295 11 22 78 163 150 313 72 151 131 275 131 277 0 2 17 41 39 87 21 45 49 106 61 133 12 28 40 87 61 133 l38 82 -25 0 c-21 0 -30 -10 -56 -67 -115 -256 -229 -500 -353 -758 -77 -161 -101 -211 -197 -425 -38 -85 -90 -201 -116 -257 l-47 -102 -57 -22 c-31 -11 -61 -19 -66 -18 -7 3 94 244 157 374 23 46 79 174 181 410 59 138 151 349 205 470 188 424 177 395 150 395 -25 0 -37 -21 -113 -195 -22 -49 -53 -119 -70 -155 -61 -134 -113 -250 -187 -425 -41 -99 -80 -189 -85 -200 -51 -114 -210 -477 -210 -481 0 -3 -19 -48 -41 -100 l-42 -94 -493 0 c-272 0 -494 3 -494 8 0 6 79 244 155 467 28 81 81 229 119 330 15 39 49 129 76 200 26 72 91 244 144 384 53 140 96 256 96 258 0 3 -12 3 -27 1 -24 -3 -31 -17 -99 -190 -76 -197 -91 -237 -154 -410 -22 -59 -48 -129 -59 -155 -44 -106 -138 -372 -221 -623 l-88 -265 -171 -3 c-133 -2 -171 0 -171 10 0 16 122 387 185 563 54 150 339 1006 349 1048 5 22 3 27 -13 27 -14 0 -21 -9 -27 -32 -3 -18 -106 -330 -227 -693 -121 -363 -236 -718 -257 -790 -31 -110 -40 -130 -58 -133 l-21 -3 19 58 c10 32 28 90 40 128 34 110 103 325 204 635 52 157 117 357 146 445 29 88 65 203 81 255 16 52 32 103 35 113 4 13 0 17 -18 17 -22 0 -35 -36 -225 -612 -111 -337 -220 -674 -243 -748 -24 -74 -54 -170 -67 -212 l-25 -78 -509 0 c-333 0 -509 3 -509 10 0 14 65 289 112 470 64 248 225 895 252 1015 14 61 29 121 32 133 6 21 4 23 -17 20 -22 -3 -28 -17 -77 -213 -29 -115 -82 -324 -118 -463 -96 -375 -211 -838 -225 -909 l-13 -63 -173 0 -173 0 0 24 c0 13 27 154 59 312 69 336 63 307 141 629 178 728 170 690 148 683 -7 -3 -33 -83 -58 -183 -24 -98 -46 -173 -48 -167 -1 5 6 47 18 92 11 45 29 122 39 171 l18 89 -23 0 c-19 0 -25 -8 -32 -37 -23 -93 -155 -639 -178 -737 -26 -113 -87 -400 -106 -496 -12 -67 -27 -97 -29 -60 -1 33 -30 212 -109 665 -5 28 -36 187 -69 354 -34 167 -61 305 -61 307 0 2 -14 4 -31 4 -24 0 -29 -3 -25 -17 5 -18 105 -521 150 -758 35 -188 103 -619 121 -768 8 -70 21 -167 30 -215 13 -78 46 -337 90 -717 14 -123 49 -459 61 -590 2 -33 7 -80 9 -105 4 -39 35 -422 50 -625 12 -152 45 -701 55 -900 5 -115 12 -250 15 -300 2 -49 7 -157 11 -238 l6 -149 -28 18 c-16 10 -37 24 -46 32 -14 12 -125 14 -697 14 -554 0 -681 3 -685 13 -3 9 -33 16 -83 20 l-79 7 4 92 c5 117 13 127 61 76 35 -36 43 -40 89 -40 41 0 54 4 66 22 22 31 20 107 -3 168 -20 52 -69 125 -78 116 -3 -3 9 -46 27 -96 19 -56 30 -106 28 -128 -3 -36 -4 -37 -45 -36 -47 0 -93 33 -93 65 0 42 -92 53 -98 12 -4 -29 -32 -39 -39 -14 -6 23 -55 45 -83 38 -16 -4 -20 0 -20 18 0 14 7 25 20 28 26 7 26 23 -1 30 -13 4 -20 11 -16 20 3 8 1 20 -4 28 -8 12 -10 12 -19 -1 -5 -8 -10 -25 -10 -37 0 -16 -6 -23 -19 -23 -11 0 -23 -4 -26 -10 -3 -6 4 -10 18 -10 26 0 55 -44 37 -55 -6 -4 -10 -19 -10 -35 0 -20 -9 -35 -29 -49 -16 -12 -32 -21 -35 -21 -27 0 -9 186 25 250 10 19 18 32 19 28 0 -4 24 0 53 9 58 17 165 19 246 3 69 -13 67 -13 46 10 -18 20 -17 20 8 20 37 0 34 17 -6 36 -25 12 -39 13 -60 5 -15 -6 -27 -14 -27 -18 0 -14 -159 -10 -164 4 -10 25 -96 9 -96 -18 0 -7 12 -8 33 -4 17 4 30 6 27 4 -3 -2 -18 -15 -34 -29 -21 -18 -28 -20 -23 -8 4 12 2 15 -9 11 -36 -14 -94 -161 -94 -240 0 -39 30 -113 46 -113 12 0 82 52 99 74 6 7 26 15 46 19 l36 5 -1 -104 c-1 -61 -5 -104 -11 -105 -60 -4 -104 -13 -122 -25 -16 -10 -52 -14 -122 -14 -116 0 -103 -15 -121 140 -6 52 -16 132 -22 176 l-11 81 -76 7 c-42 3 -226 9 -408 13 l-333 6 0 32 0 32 -97 6 c-54 4 -153 7 -220 7 -111 0 -123 2 -121 18 1 9 0 34 0 55 l-2 37 -60 0 -60 0 -1 -47 c0 -27 -2 -61 -3 -78 -2 -16 -5 -132 -7 -257 l-4 -228 -41 0 c-22 0 -63 -7 -90 -15 -27 -8 -52 -15 -56 -15 -5 0 -8 26 -8 58 0 61 32 600 50 832 6 74 12 167 15 205 15 214 53 680 64 784 5 47 13 124 16 171 4 47 8 92 10 100 1 8 6 49 9 90 4 41 11 109 17 150 5 41 13 116 19 165 14 131 49 407 54 425 3 8 8 44 11 80 23 237 181 1255 271 1740 14 74 34 182 45 240 11 58 26 143 34 190 9 47 18 93 21 103 4 14 -1 17 -25 17 -17 0 -31 -3 -31 -7 0 -7 -14 -82 -85 -458 -44 -234 -151 -868 -181 -1072 l-18 -123 -33 0 -33 0 -1 298 c0 163 -2 304 -3 312 -2 8 -6 141 -10 295 -6 284 -12 440 -22 643 -6 111 -6 112 -31 112 l-25 0 6 -147 c3 -82 8 -238 11 -348 10 -403 16 -621 20 -670 2 -27 7 -150 11 -272 l7 -223 -207 0 -206 0 0 68 c0 37 -7 166 -15 287 -19 291 -41 637 -60 975 -18 323 -19 330 -47 330 -20 0 -21 -3 -13 -182 4 -101 8 -203 10 -228 2 -25 6 -108 10 -185 3 -77 8 -162 10 -190 3 -27 9 -122 15 -210 6 -88 17 -261 25 -384 8 -124 15 -237 15 -252 l0 -28 -526 3 c-441 2 -528 5 -534 17 -4 8 -18 75 -30 149 -12 74 -28 169 -35 210 -8 41 -23 125 -34 185 -20 105 -41 221 -111 595 -78 420 -94 492 -107 497 -8 3 -16 4 -18 2 -3 -4 68 -445 104 -634 122 -655 182 -974 187 -992 5 -20 2 -23 -19 -23 -24 0 -26 4 -32 58 -4 31 -15 109 -25 172 -11 63 -26 160 -34 215 -9 55 -18 111 -21 125 -3 14 -12 68 -20 120 -22 134 -54 322 -71 410 -7 41 -16 93 -20 115 -5 37 -52 278 -76 388 -6 29 -15 47 -24 47 -20 0 -19 -4 31 -300 25 -146 54 -319 65 -385 10 -66 50 -308 89 -539 39 -230 71 -421 71 -425 0 -4 -71 -6 -157 -4 -87 1 -177 2 -200 3 -41 0 -41 0 -52 48 -6 26 -15 79 -21 117 -6 39 -19 117 -30 175 -51 272 -59 317 -65 350 -3 19 -10 58 -15 85 -6 28 -33 169 -60 315 -28 146 -64 328 -80 405 -17 77 -30 144 -30 148 0 4 -9 7 -20 7 -16 0 -19 -5 -15 -22 3 -13 19 -99 36 -193 16 -93 37 -206 45 -250 15 -80 20 -108 48 -265 24 -135 144 -757 161 -839 9 -40 14 -76 11 -78 -6 -6 -1034 -8 -1040 -2 -7 7 -345 1012 -476 1417 -65 198 -87 248 -106 230 -15 -15 179 -619 459 -1431 l75 -218 -26 3 c-30 3 -30 4 -87 193 -37 121 -50 162 -171 540 -36 116 -84 266 -106 335 -149 468 -189 580 -209 580 -24 0 -24 -6 1 -77 17 -51 179 -560 260 -818 59 -186 150 -475 194 -610 24 -77 43 -141 41 -143 -2 -2 -95 -4 -207 -5 l-203 -1 -16 34 c-9 19 -45 130 -79 245 -34 116 -68 228 -75 250 -7 22 -23 76 -35 120 -12 44 -35 121 -51 170 -15 50 -46 155 -69 235 -49 172 -142 467 -171 545 -14 39 -26 55 -39 55 -17 0 -16 -4 5 -77z m7722 -385 c-3 -8 -6 -5 -6 6 -1 11 2 17 5 13 3 -3 4 -12 1 -19z m-30 -120 c-3 -8 -6 -5 -6 6 -1 11 2 17 5 13 3 -3 4 -12 1 -19z m11073 -624 c-1 -269 -3 -505 -4 -524 -2 -19 -7 -177 -11 -350 -4 -173 -9 -342 -10 -375 -22 -495 -26 -2050 -11 -3672 l9 -933 -24 -1 c-76 -2 -127 -23 -170 -71 l-36 -40 -149 1 c-81 1 -150 3 -151 5 -2 1 -6 29 -9 61 l-7 58 154 -7 c85 -3 177 -9 204 -12 28 -3 55 -1 61 3 10 7 17 1226 28 5053 2 679 -4 1174 -15 1185 -4 3 -55 -11 -115 -31 -105 -36 -156 -50 -444 -128 -291 -78 -330 -89 -470 -127 -362 -100 -833 -252 -869 -280 -13 -11 -29 -19 -35 -19 -6 0 -83 -23 -171 -51 -88 -28 -234 -73 -325 -100 -221 -66 -336 -102 -740 -228 -69 -21 -172 -53 -230 -71 -58 -18 -123 -38 -145 -45 -22 -7 -92 -29 -155 -48 -317 -98 -387 -119 -415 -127 -16 -5 -88 -27 -160 -49 -134 -41 -571 -169 -730 -214 -49 -14 -128 -37 -175 -50 -47 -14 -128 -36 -180 -50 -52 -14 -156 -42 -230 -62 -187 -51 -504 -132 -630 -161 -58 -14 -134 -33 -170 -43 -36 -11 -118 -31 -183 -46 -105 -25 -137 -38 -125 -50 7 -7 255 41 485 95 391 90 981 243 1288 334 44 14 152 45 240 71 88 26 208 62 266 80 59 19 135 41 170 50 35 9 105 29 154 45 50 16 151 48 225 71 74 23 140 44 147 46 9 4 10 -93 6 -409 -3 -227 -8 -416 -12 -419 -7 -6 -118 -37 -166 -45 -16 -3 -73 -16 -125 -29 -108 -27 -426 -99 -640 -145 -80 -17 -172 -37 -205 -45 -84 -19 -614 -127 -650 -132 -52 -7 -220 -40 -516 -99 l-287 -57 -123 85 c-146 101 -193 126 -134 73 22 -19 77 -63 123 -97 45 -34 82 -65 82 -68 0 -3 -62 -20 -138 -39 -75 -18 -142 -36 -148 -38 -9 -3 -12 50 -13 194 -2 191 -15 430 -24 440 -9 8 -18 -197 -21 -432 -2 -201 -5 -234 -20 -258 -20 -30 -15 -70 11 -99 14 -16 15 -135 9 -1148 l-6 -1131 -41 -52 c-23 -29 -45 -53 -50 -55 -5 -2 -7 208 -4 490 9 973 16 1494 20 1568 3 41 7 198 11 349 3 150 7 285 9 300 2 14 7 145 11 291 4 146 8 269 8 275 2 19 638 208 1661 492 110 30 351 98 535 150 184 51 385 108 445 124 200 56 995 281 1355 384 107 30 535 158 750 224 52 16 264 82 470 146 626 196 1001 311 1300 400 157 47 305 91 330 98 25 8 46 13 48 12 2 -2 2 -223 2 -491z m-174 229 c-3 -54 -7 -311 -8 -571 -1 -316 -5 -478 -12 -486 -6 -7 -60 -21 -121 -30 -144 -23 -942 -183 -1025 -206 -56 -16 -65 -12 -88 35 -77 160 -278 258 -452 220 -41 -9 -134 -54 -127 -61 3 -3 14 -1 24 4 44 23 178 31 258 16 64 -13 150 -65 202 -124 27 -30 69 -107 63 -113 -3 -3 -120 -30 -260 -61 -140 -31 -308 -68 -373 -82 -64 -15 -120 -24 -123 -21 -3 3 -6 32 -5 64 0 75 52 181 121 249 27 27 47 50 45 53 -10 9 -87 -55 -124 -103 -66 -86 -85 -133 -87 -211 l-1 -70 -94 -21 c-316 -72 -733 -169 -1114 -259 -144 -34 -224 -50 -229 -44 -2 2 -5 190 -7 418 l-4 414 50 14 c56 16 284 86 445 138 113 36 315 99 530 165 353 109 451 140 805 257 506 166 652 211 970 294 279 72 570 158 675 197 30 12 59 21 64 22 5 0 6 -43 2 -97z m-8188 -1050 l-3 -318 -1402 -2 -1403 -2 -4 22 c-3 12 -14 103 -26 202 -22 189 -23 197 -40 312 -5 39 -10 79 -10 87 0 14 143 16 1445 16 l1445 0 -2 -317z m4600 -389 c2 -302 -1 -425 -9 -441 -7 -12 -9 -34 -5 -50 4 -15 11 -50 16 -78 10 -57 5 -1677 -5 -1885 -4 -74 -10 -245 -13 -380 l-7 -245 -24 -3 -23 -4 6 89 c3 48 8 194 11 323 3 129 8 336 11 460 7 300 6 1936 -1 2319 -6 310 -5 329 30 318 6 -3 11 -155 13 -423z m3574 329 c2 -10 4 -61 4 -113 l-1 -95 -65 -7 c-36 -4 -157 -21 -270 -38 -113 -17 -315 -47 -450 -65 -424 -60 -657 -102 -985 -180 -188 -45 -311 -71 -445 -95 -115 -21 -560 -107 -600 -116 -14 -3 -86 -16 -160 -30 -74 -13 -224 -42 -333 -64 -109 -22 -207 -40 -217 -40 -19 0 -38 47 -23 60 4 4 139 37 298 75 160 37 346 80 415 97 69 16 184 42 255 58 72 16 247 56 390 90 143 33 310 72 370 85 61 13 236 54 390 90 568 133 1343 301 1406 304 9 1 19 -7 21 -16z m0 -390 c-1 -87 -1 -237 -2 -334 l0 -177 -149 -118 c-82 -66 -166 -132 -187 -149 -256 -200 -691 -571 -841 -718 l-81 -80 -69 45 c-137 91 -213 117 -363 124 -83 4 -121 1 -184 -14 l-79 -20 -25 29 c-49 59 -124 75 -200 43 -58 -24 -90 -61 -103 -119 -10 -45 -9 -57 8 -96 l19 -44 -38 -59 c-56 -86 -80 -171 -87 -304 l-6 -114 -162 -99 -163 -99 0 49 c0 33 9 66 26 100 25 51 28 81 9 88 -5 1 -19 -14 -31 -34 l-21 -36 -21 45 c-19 37 -21 55 -15 108 5 51 4 62 -8 58 -8 -2 -20 -25 -28 -51 l-15 -47 -51 0 c-52 0 -52 0 -63 39 -11 37 -37 69 -47 59 -3 -2 3 -32 11 -67 13 -50 14 -67 4 -91 -15 -35 -21 -37 -45 -10 -38 42 -49 8 -14 -41 19 -27 21 -42 18 -142 -6 -262 4 -476 30 -679 l17 -130 -40 5 c-43 6 -319 32 -470 45 l-88 7 2 145 c1 80 3 163 5 185 1 22 6 141 10 265 4 124 8 241 10 260 2 19 4 117 5 218 1 100 4 182 7 182 3 0 21 -9 39 -21 44 -27 43 -14 0 31 l-35 35 -3 610 -3 610 40 6 c22 3 90 16 150 28 61 12 227 44 370 72 143 27 314 61 380 74 66 13 172 33 235 45 63 11 178 32 256 48 l141 28 44 -34 c104 -81 214 -117 333 -110 130 8 211 46 293 137 32 35 46 58 76 132 14 34 19 37 69 44 64 8 391 55 417 60 33 6 93 15 236 36 153 22 385 71 437 92 18 8 35 13 37 11 2 -2 4 -75 3 -161z m-7698 120 c0 -13 -1 -1035 -2 -2272 l-2 -2249 -27 -10 c-62 -23 -204 -64 -209 -60 -3 3 -6 2882 -4 4571 l0 48 123 -3 c119 -3 122 -3 121 -25z m-294 -2298 l0 -2314 -52 -16 c-28 -8 -58 -15 -65 -15 -11 0 -13 400 -11 2302 l3 2303 50 27 c28 15 56 28 63 28 9 0 12 -469 12 -2315z m-2852 2248 c-27 -2 -69 -2 -95 0 -27 2 -5 3 47 3 52 0 74 -1 48 -3z m140 0 c-15 -2 -42 -2 -60 0 -18 2 -6 4 27 4 33 0 48 -2 33 -4z m215 0 c-35 -2 -91 -2 -125 0 -35 2 -7 3 62 3 69 0 97 -1 63 -3z m185 0 c-16 -2 -40 -2 -55 0 -16 2 -3 4 27 4 30 0 43 -2 28 -4z m65 0 c-7 -2 -19 -2 -25 0 -7 3 -2 5 12 5 14 0 19 -2 13 -5z m80 0 c-13 -2 -33 -2 -45 0 -13 2 -3 4 22 4 25 0 35 -2 23 -4z m190 0 c-29 -2 -78 -2 -110 0 -32 2 -8 3 52 3 61 0 87 -1 58 -3z m115 0 c-10 -2 -28 -2 -40 0 -13 2 -5 4 17 4 22 1 32 -1 23 -4z m145 0 c-7 -2 -21 -2 -30 0 -10 3 -4 5 12 5 17 0 24 -2 18 -5z m390 0 c-62 -2 -165 -2 -230 0 -65 1 -14 3 112 3 127 0 180 -2 118 -3z m144 1 c-3 -3 -12 -4 -19 -1 -8 3 -5 6 6 6 11 1 17 -2 13 -5z m191 -1 c-26 -2 -71 -2 -100 0 -29 2 -8 3 47 3 55 0 79 -1 53 -3z m245 0 c-34 -2 -93 -2 -130 0 -37 2 -9 3 62 3 72 0 102 -1 68 -3z m130 0 c-13 -2 -33 -2 -45 0 -13 2 -3 4 22 4 25 0 35 -2 23 -4z m180 0 c-29 -2 -77 -2 -105 0 -29 2 -6 3 52 3 58 0 81 -1 53 -3z m210 0 c-29 -2 -77 -2 -105 0 -29 2 -6 3 52 3 58 0 81 -1 53 -3z m41 -2332 l-1 -2284 -147 -53 c-166 -60 -234 -94 -321 -159 -75 -56 -106 -96 -112 -143 -6 -44 20 -82 105 -152 120 -100 132 -112 132 -136 l0 -24 -102 4 c-57 2 -509 5 -1005 5 l-903 1 0 169 c0 159 -1 169 -20 174 -19 5 -19 15 -20 233 -1 126 -3 243 -6 259 -3 17 -8 180 -11 363 l-6 332 59 0 c50 0 56 2 44 14 -8 8 -35 18 -60 23 l-45 9 39 19 c36 17 37 20 19 28 -18 8 -19 14 -12 45 12 50 12 182 0 214 -12 32 -25 40 -70 44 -83 7 -102 -26 -102 -187 0 -60 -5 -109 -10 -109 -5 0 -9 42 -9 93 0 50 -5 189 -10 307 -5 118 -12 269 -15 335 -13 312 -42 873 -50 990 -2 39 -7 104 -10 145 -5 84 -11 169 -25 380 -14 200 -29 406 -35 460 -2 25 -7 79 -10 120 -5 65 -12 141 -40 425 -3 28 -12 112 -20 188 -8 77 -15 140 -15 142 0 9 127 10 1414 10 l1381 0 -1 -2284z m6926 2184 c0 -20 -45 -86 -82 -121 -132 -127 -330 -137 -501 -26 -20 14 -36 26 -34 28 1 1 95 21 207 43 113 22 248 49 300 59 52 11 98 20 103 21 4 0 7 -1 7 -4z m-2422 -377 c-3 -32 -5 -33 -73 -45 -291 -55 -1317 -268 -1480 -308 -33 -8 -130 -30 -215 -49 -406 -90 -646 -146 -790 -183 -172 -45 -375 -93 -396 -93 -24 0 -34 17 -34 59 0 27 3 29 78 44 405 83 612 125 637 129 286 48 1240 241 1635 332 131 30 535 126 575 136 59 16 67 13 63 -22z m8 -553 c0 -253 -2 -490 -5 -528 l-6 -67 -25 22 c-14 13 -52 43 -85 67 -65 48 -242 188 -262 208 -30 28 -302 242 -346 272 -71 48 -79 32 -12 -25 32 -27 92 -79 134 -115 147 -127 329 -275 465 -379 l138 -105 -8 -505 c-4 -278 -8 -517 -10 -532 -1 -16 -2 -96 -3 -179 l-1 -150 -122 7 c-119 6 -157 16 -130 33 9 5 4 15 -18 36 -28 27 -32 28 -46 13 -9 -9 -14 -22 -12 -28 3 -9 8 -8 20 4 19 18 28 9 33 -30 2 -23 -1 -24 -50 -24 -62 0 -63 1 -72 109 -5 63 -3 74 8 64 7 -7 20 -13 28 -13 10 0 6 9 -12 28 -21 21 -27 37 -26 68 1 37 1 38 8 9 10 -40 29 -75 42 -75 5 0 7 11 3 25 -6 23 -3 25 27 25 l33 0 -30 28 c-17 15 -36 37 -42 47 -12 20 -12 20 -27 1 -14 -19 -15 -18 -15 17 0 34 2 37 30 37 21 0 28 -4 24 -14 -3 -8 2 -29 12 -47 14 -28 18 -31 28 -17 6 8 24 16 39 16 52 0 53 18 3 40 -25 12 -46 24 -46 27 0 4 11 20 25 37 25 29 31 48 60 167 18 74 20 77 37 64 7 -5 22 -13 33 -17 13 -4 9 3 -13 22 -18 15 -30 30 -27 34 3 3 18 -5 33 -19 32 -29 40 -17 17 27 -19 37 -15 46 13 31 35 -19 33 1 -4 33 -35 30 -35 32 -27 81 14 81 -2 186 -41 270 -20 44 -32 83 -29 95 4 15 -5 31 -36 60 -23 22 -50 40 -60 40 -10 0 -49 21 -87 46 -125 84 -243 124 -364 123 -36 0 -82 -6 -103 -13 -37 -14 -40 -13 -105 25 -166 97 -359 107 -433 23 -23 -26 -55 -93 -64 -131 -3 -18 -9 -33 -11 -33 -13 0 -84 54 -84 64 0 16 28 41 190 172 74 59 144 117 155 127 11 11 116 96 233 189 116 94 212 172 212 174 0 11 -25 -1 -101 -52 -134 -90 -233 -170 -553 -444 -16 -14 -58 -52 -94 -85 -35 -33 -67 -61 -71 -62 -3 -1 -36 19 -73 45 -37 26 -193 135 -345 242 -153 107 -297 209 -320 226 l-42 32 77 16 c42 9 124 28 182 41 58 14 191 43 295 66 105 22 253 53 330 70 77 16 214 45 305 64 91 19 284 59 430 90 146 30 348 72 450 92 102 20 212 42 245 49 112 23 100 75 101 -451z m3660 -817 c-3 -700 -6 -1596 -6 -1990 l-1 -718 -52 0 c-28 0 -75 3 -104 6 -51 6 -52 7 -38 28 8 11 15 40 15 63 0 80 -89 145 -177 128 -32 -6 -34 -5 -28 16 15 47 6 343 -14 486 -21 151 -63 363 -86 438 -12 41 -10 72 20 323 19 152 39 307 45 345 5 37 10 103 10 147 0 75 2 83 40 145 66 108 46 132 -32 37 l-27 -32 -16 34 c-9 18 -25 43 -35 54 -19 20 -19 24 -5 84 17 71 19 134 6 142 -13 9 -28 -14 -41 -64 -25 -98 -31 -112 -45 -100 -8 6 -45 15 -82 18 l-68 7 -5 100 c-3 55 -9 106 -13 113 -20 31 -27 4 -27 -112 0 -117 -1 -125 -21 -131 -11 -4 -35 -20 -54 -36 l-33 -30 -16 54 c-16 56 -49 107 -58 91 -3 -5 3 -51 14 -102 18 -88 18 -95 3 -137 l-17 -43 -28 31 c-18 21 -30 49 -35 82 -4 28 -12 59 -18 70 -6 11 -10 24 -9 29 2 5 3 51 3 101 0 88 1 92 25 106 39 20 58 65 56 132 -2 108 -82 210 -163 210 -35 0 -42 5 -80 54 -23 30 -37 58 -33 62 59 49 150 127 154 131 13 13 357 308 385 330 18 14 108 87 201 164 215 176 194 158 304 247 52 42 115 95 140 117 25 23 47 41 49 42 2 0 1 -573 -3 -1272z m-5971 653 c67 -47 153 -108 193 -136 40 -27 157 -110 260 -184 103 -73 221 -155 263 -182 l76 -49 6 -62 c4 -44 17 -85 47 -144 39 -81 131 -196 145 -182 3 3 -18 47 -49 98 -87 144 -100 186 -101 310 0 123 15 160 81 198 33 19 51 22 119 20 69 -3 91 -8 159 -41 94 -44 326 -209 326 -230 0 -2 -26 1 -57 8 -32 7 -84 16 -116 19 -60 6 -117 38 -138 78 -17 32 -32 9 -27 -43 4 -37 2 -49 -9 -49 -8 0 -31 -9 -53 -20 -43 -22 -94 -26 -134 -10 -20 7 -26 6 -26 -4 0 -17 39 -52 73 -65 27 -10 27 -11 11 -36 -19 -29 -33 -31 -60 -9 -10 8 -14 13 -8 10 6 -3 18 0 27 7 14 10 7 12 -40 14 -47 1 -54 -1 -38 -10 11 -6 26 -18 32 -28 7 -9 23 -19 35 -22 22 -6 23 -11 23 -99 0 -72 -4 -99 -18 -119 -10 -15 -21 -43 -24 -63 -7 -41 12 -148 33 -189 14 -26 13 -32 -11 -85 -29 -63 -55 -95 -100 -123 l-30 -19 26 0 c60 0 138 93 139 164 0 53 14 17 31 -82 9 -53 27 -152 39 -220 l21 -122 -20 -27 c-24 -30 -28 -68 -7 -60 13 5 12 1 0 -29 -12 -28 -12 -34 -1 -34 8 0 22 9 32 20 22 24 31 19 15 -9 -9 -18 -20 -21 -82 -21 -58 0 -318 -25 -575 -55 -36 -4 -50 1 -100 35 -32 21 -59 37 -61 35 -8 -8 22 -48 50 -64 l30 -19 -74 -12 c-118 -20 -404 -78 -518 -104 -189 -44 -342 -100 -433 -160 l-27 -19 2 354 c1 195 4 417 6 494 l3 140 24 -59 c26 -65 74 -121 120 -142 26 -12 27 -13 8 -14 -13 0 -23 -4 -23 -10 0 -11 20 -13 44 -4 17 6 10 34 -8 34 -38 0 -105 113 -141 238 l-24 83 -1 563 0 563 183 37 c101 21 206 43 233 50 57 16 43 23 219 -103z m3930 -235 c18 -8 38 -23 44 -34 8 -16 6 -21 -14 -32 -14 -7 -25 -17 -25 -22 0 -11 -2 -11 66 13 75 27 274 37 366 19 114 -22 244 -92 338 -182 74 -70 77 -76 52 -94 -25 -17 -57 -73 -48 -82 4 -3 22 13 41 36 59 69 122 64 182 -14 22 -30 28 -49 31 -103 3 -56 1 -69 -17 -88 -21 -22 -77 -43 -116 -43 -11 0 -26 -4 -34 -9 -15 -10 -4 -15 62 -27 l37 -6 0 -55 c0 -82 -27 -197 -72 -306 -41 -99 -44 -124 -9 -93 21 19 79 123 91 165 l8 26 1 -25 c2 -47 -36 -181 -61 -215 -31 -44 -97 -113 -178 -188 -34 -32 -60 -61 -57 -63 3 -3 33 9 66 26 108 58 234 210 256 308 3 17 10 32 15 32 19 0 51 -55 47 -80 -13 -70 -57 -356 -68 -433 -9 -70 -15 -90 -31 -98 -50 -27 -107 -226 -79 -278 18 -32 45 -28 38 7 -7 33 15 153 37 202 l15 35 1 -83 c0 -60 3 -83 12 -80 18 6 25 41 68 328 61 408 61 407 116 530 30 67 96 122 112 94 10 -19 32 -11 32 12 0 17 72 19 119 3 26 -9 32 -16 31 -38 -4 -63 9 -80 35 -44 11 14 15 9 30 -37 14 -41 15 -57 6 -72 -16 -25 -14 -48 5 -48 17 0 14 -74 -12 -300 -8 -69 -19 -165 -25 -215 -5 -49 -14 -117 -20 -150 -5 -33 -11 -80 -14 -105 -8 -73 -44 -343 -50 -370 -3 -14 -14 -35 -23 -48 l-18 -23 -66 64 c-36 36 -98 84 -136 107 -72 42 -211 105 -218 98 -2 -3 36 -26 84 -53 149 -82 254 -175 328 -291 20 -33 45 -70 54 -85 22 -32 82 -190 115 -305 28 -96 60 -287 70 -425 l7 -86 -58 -16 c-33 -9 -106 -27 -164 -41 -58 -13 -112 -27 -120 -30 -13 -5 -15 17 -16 161 -2 194 -16 356 -45 498 -39 191 -125 410 -183 464 -33 31 -33 24 5 -57 122 -264 179 -562 179 -942 l0 -145 -207 -52 c-115 -29 -296 -77 -403 -108 -107 -30 -201 -55 -209 -55 -11 0 -9 6 6 23 61 65 153 280 153 355 0 90 -32 129 -156 192 -48 25 -203 75 -279 91 -89 18 -274 18 -305 -1 -23 -14 -18 -15 88 -21 279 -17 587 -124 593 -206 7 -90 -15 -161 -108 -346 -45 -88 -59 -108 -81 -113 -15 -3 -56 -14 -92 -24 -76 -22 -329 -84 -549 -135 -85 -20 -172 -45 -193 -57 -72 -41 -111 -127 -144 -316 -16 -96 -19 -103 -38 -99 -12 3 -74 19 -139 36 -65 17 -126 31 -137 31 -10 0 -21 4 -24 8 -6 10 71 132 84 132 32 0 84 182 78 270 l-4 61 30 -7 c56 -12 189 -6 228 10 68 29 55 37 -50 30 -54 -4 -124 -4 -155 0 -53 7 -59 10 -76 44 -10 20 -19 41 -20 45 0 4 -22 26 -48 48 -27 23 -52 44 -56 48 -4 4 1 29 12 54 37 87 52 193 58 407 6 212 11 237 52 274 31 28 97 16 242 -45 127 -52 287 -99 342 -99 57 0 10 27 -138 79 -77 27 -176 64 -220 82 -64 27 -94 33 -152 34 -63 0 -75 -3 -98 -25 -50 -46 -56 -77 -70 -320 -8 -133 -20 -222 -46 -332 -19 -80 -22 -87 -39 -78 -10 6 -40 10 -66 10 l-47 0 6 378 c7 500 35 779 98 982 24 78 90 204 127 242 28 31 25 46 -6 29 -31 -17 -88 -90 -121 -158 -64 -128 -114 -378 -138 -683 -7 -97 -8 -101 -13 -50 l-6 55 -13 -30 c-14 -31 -12 -107 8 -305 10 -100 15 -252 12 -382 l-1 -78 -124 0 c-86 0 -137 5 -167 16 -54 19 -88 13 -184 -31 l-74 -33 21 43 c23 48 19 79 -9 68 -10 -4 -46 -26 -81 -49 -73 -50 -100 -60 -115 -45 -8 8 2 30 35 78 58 85 65 101 44 109 -9 4 -38 -12 -75 -40 -66 -51 -80 -55 -105 -27 -17 19 -16 21 22 63 36 39 62 78 62 92 0 15 -39 3 -97 -30 -60 -33 -83 -37 -83 -12 0 12 77 121 109 155 20 22 29 54 14 52 -5 0 -53 -22 -108 -48 -55 -27 -104 -47 -108 -44 -5 3 11 26 35 52 63 67 82 91 72 91 -6 0 -35 -22 -66 -50 -31 -28 -59 -50 -63 -50 -3 0 -29 23 -56 52 l-50 52 -189 1 c-156 0 -192 3 -204 15 -14 14 -8 15 59 12 89 -5 148 4 142 21 -2 8 -37 12 -114 12 -112 0 -143 9 -143 42 0 12 21 14 127 11 94 -2 127 0 130 10 4 9 -14 12 -69 12 -70 1 -182 19 -206 34 -7 4 -12 19 -12 33 0 23 3 25 28 18 40 -10 210 -18 230 -10 16 6 16 8 -2 21 -14 10 -49 14 -120 14 -56 0 -120 6 -144 13 l-43 13 21 19 c18 16 44 21 143 27 128 7 174 15 183 29 3 5 14 9 24 9 10 0 31 11 46 24 l28 23 -34 32 c-25 23 -30 31 -17 31 9 0 17 5 17 11 0 6 -9 8 -22 3 -23 -7 -63 -7 -103 0 -11 3 -46 7 -77 11 -32 4 -58 11 -58 15 0 4 28 18 63 30 56 21 68 22 118 11 30 -6 74 -11 96 -11 50 0 62 -11 166 -156 40 -56 88 -120 106 -143 44 -55 221 -203 291 -243 136 -78 277 -184 357 -269 60 -62 51 -19 -11 56 -46 55 -94 100 -138 129 l-29 18 6 392 c7 434 16 607 41 753 9 54 17 99 19 101 1 1 27 -9 57 -22 30 -13 74 -29 97 -36 58 -15 147 -106 189 -191 56 -117 66 -172 59 -361 -7 -180 1 -208 29 -110 18 61 25 265 12 334 -11 52 -41 130 -72 183 -37 62 -119 142 -159 154 -17 5 -142 61 -277 125 -135 64 -249 116 -254 116 -16 0 33 -47 70 -66 33 -18 35 -21 28 -59 -3 -21 -12 -55 -19 -75 l-12 -35 -79 -7 c-141 -13 -296 -60 -319 -98 -8 -13 -18 -14 115 19 63 16 148 32 189 36 l74 7 -22 -30 c-27 -39 -107 -109 -145 -129 -38 -20 -165 -63 -184 -63 -8 0 -43 27 -78 59 -76 71 -199 137 -238 127 -44 -11 -29 -51 38 -104 l29 -22 -41 0 c-37 0 -45 5 -94 59 -57 64 -107 146 -95 157 4 4 42 -5 85 -20 119 -43 135 -44 87 -9 -45 33 -102 57 -157 67 -32 6 -39 12 -48 44 -5 20 -10 42 -10 47 0 6 38 19 84 30 l84 20 -5 -52 c-4 -33 -2 -53 4 -53 16 0 33 50 38 110 6 91 4 89 110 106 68 10 238 65 289 92 55 30 64 47 72 145 8 93 -11 81 -29 -19 -12 -69 -12 -69 -61 -93 -53 -26 -138 -52 -259 -79 -61 -13 -81 -14 -96 -5 -15 10 -20 9 -25 -2 -8 -22 -36 -18 -36 5 0 26 -8 25 -37 -2 l-24 -22 -6 22 c-6 25 -14 27 -32 10 -10 -11 -11 -7 -5 16 6 25 5 28 -11 22 -13 -5 -16 -2 -13 12 3 11 -7 77 -23 148 -63 288 -71 338 -66 393 5 50 -7 63 -15 14 -3 -19 -5 -20 -21 -8 -29 21 -43 132 -27 203 16 69 16 69 18 157 2 70 2 71 34 83 17 6 33 11 34 9 1 -1 -11 -40 -27 -87 -31 -92 -34 -129 -19 -211 18 -95 31 -83 24 23 -8 116 -4 134 28 117 42 -21 89 -73 125 -137 l36 -64 -6 -111 c-11 -197 -18 -251 -35 -264 -14 -11 -14 -15 3 -33 22 -25 69 -26 126 -4 54 22 33 36 -40 28 -50 -6 -54 -5 -47 12 17 45 37 226 34 304 -4 78 -8 92 -47 165 -24 44 -60 95 -79 113 -33 30 -60 43 -47 22 8 -12 -15 -13 -34 -1 -12 8 -11 17 7 59 12 28 22 58 22 67 0 9 16 37 35 62 19 25 35 56 35 69 0 21 2 23 25 12 14 -6 25 -15 25 -20 0 -5 -20 -31 -45 -57 -51 -54 -55 -65 -22 -56 32 10 65 44 78 79 8 21 24 37 51 49 62 30 100 13 216 -97 34 -32 62 -53 62 -45 0 8 -3 19 -7 25 -5 5 15 -14 42 -43 57 -61 77 -68 69 -23 -4 17 -4 30 -1 30 7 0 91 -108 149 -192 42 -61 45 -68 28 -73 -11 -3 -28 -17 -39 -31 -10 -13 -22 -24 -25 -24 -3 0 -6 26 -7 58 -1 50 -2 53 -10 27 -14 -47 -16 -177 -2 -182 6 -2 16 11 22 29 13 41 67 108 86 108 29 0 61 -22 84 -58 20 -30 26 -53 29 -125 5 -98 -13 -165 -51 -192 -25 -17 -99 -20 -128 -5 -27 15 -24 -5 5 -27 22 -18 23 -23 15 -64 -23 -119 -4 -312 37 -374 18 -28 34 -33 34 -10 0 8 6 13 13 10 6 -2 106 -6 221 -10 116 -3 233 -8 260 -10 28 -3 134 -12 236 -20 383 -32 828 -92 1260 -171 319 -58 340 -62 469 -89 131 -27 161 -30 121 -14 -49 20 -487 128 -625 154 -290 55 -465 84 -631 106 l-171 22 -12 88 c-40 305 -55 773 -27 852 28 77 86 105 106 51 7 -17 15 -24 25 -20 20 7 29 -11 32 -69 1 -27 5 -68 9 -90 5 -35 3 -41 -14 -42 -16 -1 -20 7 -25 56 -8 76 -21 106 -52 127 -20 13 -28 14 -40 4 -8 -7 -15 -19 -15 -27 0 -12 3 -13 15 -3 21 18 32 5 44 -51 15 -70 14 -124 -4 -139 -25 -21 -19 -92 10 -120 18 -17 25 -34 25 -59 0 -37 6 -85 41 -331 20 -142 31 -180 49 -180 15 0 12 39 -20 260 -16 113 -30 218 -30 234 l0 30 28 -27 c27 -26 29 -36 41 -155 15 -144 47 -351 56 -360 14 -14 25 27 25 90 0 64 1 68 29 83 l30 15 3 -43 3 -42 17 30 c9 17 37 87 63 157 l47 126 34 -5 c48 -8 43 12 -8 37 -41 20 -41 20 -73 0 -38 -23 -105 -27 -105 -6 0 7 12 21 26 31 14 9 23 19 20 22 -2 3 -35 11 -73 18 -37 8 -83 20 -102 28 l-33 14 61 7 c43 5 67 13 81 28 28 31 26 40 -25 87 -25 23 -45 43 -45 45 0 3 30 21 68 42 111 62 236 151 255 182 9 17 17 45 17 64 0 54 27 189 49 249 20 54 73 140 123 201 28 35 19 44 -22 23 -41 -21 -60 -7 -60 48 0 102 104 165 205 123z m-2321 -182 c139 -36 289 -128 367 -226 71 -89 102 -168 107 -274 4 -86 -10 -215 -26 -241 -7 -11 -36 38 -75 127 -49 107 -379 464 -519 560 -43 29 -75 57 -72 62 9 14 153 9 218 -8z m-351 -142 c32 -27 34 -32 17 -32 -26 0 -70 43 -70 67 0 10 4 14 8 8 4 -6 24 -25 45 -43z m777 -83 c0 -6 -11 3 -25 19 -14 17 -25 34 -25 38 1 12 50 -45 50 -57z m-840 39 c0 -13 -141 -151 -147 -144 -5 4 63 100 94 133 24 25 53 31 53 11z m432 -81 c38 -41 57 -70 55 -84 -1 -19 -10 -13 -60 42 -32 36 -64 65 -69 65 -6 0 -4 -8 3 -17 8 -10 -7 0 -33 22 -27 22 -48 41 -48 43 0 2 21 0 48 -3 42 -6 54 -13 104 -68z m-542 32 c0 -13 -34 -11 -54 4 -16 12 -14 13 18 9 20 -2 36 -8 36 -13z m-10530 -2092 c0 -996 3 -2126 7 -2509 l6 -696 -42 -12 c-24 -6 -44 -10 -46 -8 -6 7 -41 824 -51 1188 -4 129 -8 237 -9 240 -9 15 -20 850 -20 1440 0 592 10 1232 20 1315 2 17 6 102 10 190 3 88 8 189 10 225 25 388 25 392 31 437 l5 43 40 -20 39 -20 0 -1813z m11381 1741 c16 -22 17 -27 5 -22 -9 3 -16 11 -16 17 0 6 -10 22 -22 36 -14 15 -16 20 -5 12 10 -8 27 -27 38 -43z m-10203 -343 c0 -176 -3 -245 -12 -245 -8 0 -10 63 -8 232 2 128 1 230 -2 227 -3 -2 -6 -70 -6 -149 -2 -185 -11 -310 -22 -310 -4 0 -6 37 -4 83 2 45 4 155 5 245 l1 162 24 0 25 0 -1 -245z m138 75 c-9 -76 -9 -410 -1 -443 7 -27 7 -27 -40 -22 -27 3 -49 6 -51 7 -2 3 -7 490 -5 511 1 4 24 7 52 5 l51 -3 -6 -55z m160 -202 c-4 -138 -9 -254 -11 -258 -4 -7 -116 -4 -120 3 -1 1 0 116 3 255 l4 252 66 0 65 0 -7 -252z m146 240 c3 -7 6 -122 7 -255 l2 -243 -60 0 -60 0 0 221 c0 122 -3 237 -7 255 l-6 34 60 0 c39 0 61 -4 64 -12z m138 -98 l0 -50 -50 0 -50 0 0 50 0 50 50 0 50 0 0 -50z m159 -127 c6 -93 15 -192 18 -220 l6 -53 -74 0 -74 0 -3 220 -2 220 58 0 59 0 12 -167z m148 152 c2 -1 6 -36 9 -78 l7 -77 -67 0 -66 0 0 63 c0 34 -3 71 -6 83 -5 19 -2 20 58 16 35 -2 64 -5 65 -7z m132 -47 c0 -42 -2 -48 -9 -30 -5 12 -14 22 -21 22 -6 0 -9 7 -5 15 3 8 1 15 -4 15 -16 0 -11 -32 7 -45 18 -13 13 -32 -19 -77 -10 -14 -9 -21 6 -37 14 -15 15 -24 7 -40 -7 -12 -7 -22 -1 -26 5 -3 13 9 18 27 7 25 5 37 -7 51 -10 12 -12 21 -5 25 6 4 16 16 22 27 10 17 12 12 14 -32 5 -122 6 -116 -29 -120 -38 -5 -36 -8 -52 145 -15 143 -18 132 34 132 l45 0 -1 -52z m125 36 c3 -9 6 -27 6 -40 0 -22 -4 -24 -49 -24 l-49 0 -4 40 -4 40 47 0 c34 0 49 -5 53 -16z m121 -51 c11 -120 25 -257 31 -300 l5 -43 -45 0 -46 0 0 53 c0 29 -4 88 -9 132 -5 44 -12 113 -15 153 l-6 72 39 0 39 0 7 -67z m432 -19 c2 -6 -4 -14 -13 -18 -19 -7 -47 11 -38 26 8 12 46 6 51 -8z m123 -5 c0 -5 -9 -9 -20 -9 -13 0 -18 5 -14 14 6 15 34 11 34 -5z m-1277 -15 l37 -7 0 -158 0 -159 -43 0 -43 0 -2 157 c-2 86 -5 161 -8 165 -6 10 8 10 59 2z m607 -4 c0 -5 -22 -10 -50 -10 -27 0 -50 5 -50 10 0 6 23 10 50 10 28 0 50 -4 50 -10z m10452 -10 c6 0 8 -9 5 -21 -4 -14 2 -29 19 -46 21 -21 33 -24 70 -21 24 2 44 2 44 0 0 -2 -5 -13 -12 -25 -6 -12 -19 -44 -29 -71 -15 -44 -21 -51 -57 -62 l-40 -11 -6 31 c-3 17 -10 66 -16 108 -5 42 -12 89 -16 104 -6 23 -4 26 10 21 10 -4 22 -7 28 -7z m-10455 -24 c9 -9 22 -131 22 -213 l1 -63 -44 0 -43 0 -7 83 c-4 45 -9 107 -13 139 -5 49 -3 57 13 60 25 6 63 2 71 -6z m628 -88 l0 -98 -27 0 -28 0 0 101 0 100 28 -3 27 -3 0 -97z m-865 37 c0 -12 -14 -15 -65 -15 -51 0 -65 3 -65 15 0 12 14 15 65 15 51 0 65 -3 65 -15z m9345 -13 c-3 -3 -11 0 -18 7 -9 10 -8 11 6 5 10 -3 15 -9 12 -12z m-9365 -32 c14 0 18 -14 24 -86 4 -47 5 -88 2 -91 -3 -3 -30 -7 -61 -9 -39 -3 -57 0 -59 8 -3 7 -7 53 -10 102 l-5 89 46 -7 c25 -3 54 -6 63 -6z m-902 -79 c9 -5 12 -25 10 -62 -3 -51 -5 -54 -30 -57 -27 -3 -28 -2 -28 47 0 75 13 95 48 72z m1042 -13 c0 -7 3 -30 6 -50 l7 -38 -42 0 -41 0 0 50 0 50 35 0 c21 0 35 -5 35 -12z m914 -53 c-5 -13 -36 -15 -189 -15 -103 0 -186 4 -190 9 -9 15 28 18 212 20 149 1 172 -1 167 -14z m-2044 -34 c0 -15 -30 -21 -105 -20 -65 1 -68 2 -45 15 28 15 150 19 150 5z m2368 2 c-10 -2 -28 -2 -40 0 -13 2 -5 4 17 4 22 1 32 -1 23 -4z m95 0 c-13 -2 -35 -2 -50 0 -16 2 -5 4 22 4 28 0 40 -2 28 -4z m992 -18 l30 -25 -100 5 c-55 3 -251 10 -435 15 -364 12 -449 16 -456 23 -2 2 206 5 463 5 l468 2 30 -25z m-1100 -40 c121 -3 249 -8 285 -10 36 -2 166 -7 290 -10 124 -4 250 -8 280 -10 30 -2 113 -5 183 -6 82 -2 130 -6 132 -13 2 -6 6 -78 8 -159 l5 -148 -52 5 c-28 3 -148 8 -266 11 -118 3 -251 8 -295 11 -128 6 -1265 6 -2245 -2 l-905 -7 7 124 c3 68 7 143 7 167 l1 43 408 -5 c245 -4 595 -1 882 7 474 13 858 14 1275 2z m7308 -141 c-1 -5 -13 -10 -25 -12 -58 -7 -327 -76 -364 -93 -22 -11 -43 -19 -47 -19 -7 0 -16 -8 -92 -80 -55 -53 -114 -169 -140 -274 -12 -51 -16 -101 -13 -188 1 -65 6 -118 11 -118 15 0 26 50 26 124 0 133 36 269 99 371 35 57 113 135 135 135 10 0 27 5 38 10 17 10 18 8 9 -12 -35 -82 -63 -285 -64 -461 l-1 -128 -25 6 -25 5 28 -24 c15 -14 27 -30 27 -36 0 -5 3 -9 8 -9 4 1 14 1 22 0 27 -3 -51 -31 -87 -31 -67 0 -153 -64 -153 -115 0 -29 32 -44 108 -50 53 -4 122 -26 122 -39 0 -3 3 -11 6 -19 11 -28 -26 -35 -121 -22 -100 14 -139 9 -84 -11 19 -7 44 -13 57 -13 12 -1 22 -5 22 -11 0 -5 18 -10 41 -10 37 0 40 -2 33 -22 -4 -13 -12 -27 -18 -31 -11 -8 -97 -3 -148 9 -40 9 -35 -12 5 -24 17 -6 55 -14 82 -18 l50 -7 -34 -8 c-19 -4 -45 -3 -58 2 -57 21 -75 -2 -20 -27 l32 -14 -40 6 c-22 4 -42 7 -45 8 -14 3 -11 -19 4 -26 9 -4 24 -12 34 -17 9 -4 18 -19 20 -32 1 -13 14 -111 28 -217 14 -106 24 -195 22 -198 -2 -2 -31 21 -64 52 -34 32 -90 71 -131 91 l-73 35 5 37 c2 20 11 104 20 186 9 83 21 183 27 223 10 66 12 71 25 52 10 -14 11 -25 3 -39 -12 -24 -13 -61 -1 -61 5 0 7 9 4 20 -3 12 2 29 12 39 15 18 15 21 0 44 -13 20 -14 30 -5 46 6 12 7 21 1 21 -5 0 -12 -6 -15 -12 -16 -34 8 82 24 120 29 66 25 84 -10 43 -41 -48 -59 -109 -70 -237 -5 -60 -18 -165 -29 -234 -12 -69 -21 -144 -21 -167 0 -47 -8 -75 -20 -68 -15 9 -180 55 -198 55 -9 0 -35 9 -56 20 -83 45 -240 42 -334 -7 l-57 -29 -72 33 c-107 49 -173 63 -298 63 -137 0 -265 -28 -397 -85 -22 -9 -23 -19 2 206 48 428 102 610 246 829 86 131 155 174 369 235 159 45 494 118 635 140 297 45 612 83 750 91 58 4 107 8 110 11 9 8 155 -4 153 -13z m-186 -116 c-3 -7 -5 -2 -5 12 0 14 2 19 5 13 2 -7 2 -19 0 -25z m1072 -125 c-74 -220 -79 -536 -11 -673 16 -33 17 -48 10 -116 -5 -44 -8 -145 -6 -226 3 -168 17 -159 -113 -78 -141 87 -269 197 -322 275 -78 114 -169 223 -209 249 -28 18 -215 41 -261 32 -17 -3 -59 -20 -92 -37 -54 -28 -66 -30 -120 -24 -38 4 -74 15 -97 31 l-38 24 6 63 c3 34 17 148 30 252 14 105 27 210 30 235 12 108 13 111 49 126 46 19 45 19 45 -23 0 -63 27 -167 58 -229 79 -156 230 -237 442 -236 309 0 550 199 541 446 -1 40 -12 26 -22 -30 -38 -204 -238 -357 -484 -371 -160 -9 -274 27 -369 117 -59 55 -110 146 -121 215 -5 31 -1 25 17 -25 40 -115 129 -214 234 -262 42 -20 65 -23 169 -23 189 1 309 41 408 138 75 73 119 164 120 246 l0 58 68 -33 67 -33 -29 -88z m-1208 86 c-5 -13 -10 -19 -10 -12 -1 15 10 45 15 40 3 -2 0 -15 -5 -28z m146 -11 c-3 -7 -5 -2 -5 12 0 14 2 19 5 13 2 -7 2 -19 0 -25z m1125 -4 c4 -3 0 -20 -7 -37 -25 -60 -47 -232 -54 -417 l-6 -185 -13 69 c-12 64 -11 126 4 271 8 73 56 305 64 305 4 0 9 -3 12 -6z m-1297 -115 c-9 -52 -23 -148 -30 -214 l-14 -120 5 98 c3 54 14 150 25 213 10 64 19 118 19 121 0 4 2 4 6 1 3 -3 -2 -48 -11 -99z m-5635 31 c-13 -37 -20 -85 -20 -145 -1 -60 -4 -83 -10 -70 -11 26 -12 148 -1 204 5 25 17 51 27 58 10 7 19 12 20 10 1 -1 -6 -27 -16 -57z m81 -71 c-1 -121 -10 -153 -44 -157 -27 -3 -27 -3 -27 56 0 64 12 140 30 186 10 27 12 28 26 14 12 -12 16 -36 15 -99z m-536 77 c28 -3 108 -7 178 -9 70 -3 129 -6 131 -8 4 -5 14 -207 21 -429 3 -96 7 -222 10 -280 3 -58 7 -222 10 -365 3 -143 7 -325 10 -405 2 -80 7 -322 11 -538 l7 -392 -236 2 -236 3 -6 165 c-3 91 -7 197 -10 235 -3 39 -9 153 -15 255 -6 102 -12 223 -15 270 -2 47 -7 146 -11 220 -3 74 -7 153 -9 175 -2 22 -6 99 -10 170 -15 300 -52 625 -72 625 -6 0 4 -302 12 -385 5 -49 12 -179 25 -440 24 -498 31 -625 45 -850 9 -132 18 -286 22 -342 l6 -103 -71 0 -72 0 -2 238 c0 130 -2 251 -3 267 -1 17 -5 118 -9 225 -4 107 -9 215 -11 240 -2 25 -7 108 -10 185 -4 76 -8 153 -10 170 -2 16 -6 80 -10 140 -8 141 -18 261 -30 345 -16 116 -29 182 -39 195 -23 31 -159 50 -721 101 -189 17 -360 22 -680 19 -297 -2 -373 -6 -500 -24 -140 -21 -300 -52 -338 -66 -34 -14 -43 -125 -77 -920 -11 -258 -22 -506 -25 -550 -2 -44 -5 -189 -6 -323 l-2 -243 -86 3 -86 3 0 35 c2 197 24 783 40 1060 3 52 8 138 10 190 3 52 8 127 10 165 2 39 7 120 10 180 4 61 13 179 21 264 8 85 14 186 13 225 0 71 0 71 -14 35 -24 -66 -61 -448 -85 -874 -6 -99 -12 -218 -15 -265 -12 -189 -25 -607 -25 -807 l0 -213 -291 0 -290 0 5 218 c3 119 8 334 11 477 3 143 10 359 15 480 5 121 12 294 15 385 3 91 8 194 10 230 2 36 7 153 11 260 4 107 8 204 9 215 1 11 3 53 4 92 l1 73 443 3 c700 4 2957 -1 3012 -7z m6574 -123 c60 -34 162 -105 158 -109 -2 -2 -27 5 -56 16 -58 21 -138 69 -166 100 -17 19 -17 20 0 20 10 0 39 -12 64 -27z m4057 -213 c24 -135 44 -346 43 -455 l0 -100 -38 110 c-39 112 -95 237 -130 289 l-19 29 23 36 c14 21 32 79 45 141 34 169 31 163 47 95 7 -33 20 -98 29 -145z m-4016 100 c20 -6 21 -8 5 -8 -11 0 -31 4 -45 8 -20 6 -21 8 -5 8 11 0 31 -4 45 -8z m-6123 -26 c-3 -3 -12 -4 -19 -1 -8 3 -5 6 6 6 11 1 17 -2 13 -5z m-2227 -194 l0 -120 -182 -1 c-101 -1 -221 -2 -268 -3 l-85 -1 -5 87 c-7 119 -20 123 -20 5 l0 -96 -42 -4 c-24 -2 43 -4 147 -5 l190 -2 -3 -167 c-2 -93 -5 -169 -5 -169 -1 -1 -91 -5 -199 -9 l-198 -7 0 285 0 285 33 6 c29 5 216 22 327 29 25 2 105 4 178 5 l132 2 0 -120z m490 100 c69 -5 142 -10 163 -10 l37 0 0 -79 c0 -44 5 -83 10 -86 6 -4 10 23 10 74 0 96 -27 88 228 64 l182 -17 1 -43 c1 -24 2 -60 3 -80 l1 -38 -552 -2 -553 -2 0 121 0 121 173 -7 c94 -4 228 -11 297 -16z m1751 -16 c-9 -28 -9 -29 -10 -3 -1 14 2 29 6 32 11 12 13 2 4 -29z m-87 -266 c-3 -161 -2 -395 3 -519 4 -125 5 -260 2 -300 -5 -67 -6 -61 -8 51 -1 69 -4 132 -5 140 -2 8 -6 150 -10 315 -3 165 -9 369 -13 453 -6 149 -5 152 15 152 21 0 21 -1 16 -292z m50 235 c-7 -66 -14 -81 -14 -35 0 17 -4 42 -9 55 -10 27 -6 37 16 37 12 0 13 -11 7 -57z m-2936 -878 l2 -894 -32 -29 c-18 -16 -71 -62 -117 -102 l-84 -73 7 299 c4 164 9 308 11 319 2 11 7 106 10 210 3 105 8 204 10 220 2 17 7 116 10 220 3 105 8 233 10 285 3 52 7 167 11 255 3 88 8 162 10 164 6 7 76 19 114 20 l36 1 2 -895z m2033 843 c9 -14 41 -373 54 -603 3 -55 8 -129 10 -165 14 -191 55 -1181 50 -1187 -1 -2 -54 49 -117 111 l-116 114 4 254 c2 139 4 534 4 876 l0 624 53 -7 c28 -4 55 -12 58 -17z m896 -60 c-3 -8 -6 -5 -6 6 -1 11 2 17 5 13 3 -3 4 -12 1 -19z m0 -50 c-3 -8 -6 -5 -6 6 -1 11 2 17 5 13 3 -3 4 -12 1 -19z m-2024 -57 l297 -1 0 -165 0 -165 -350 0 -350 0 -1 148 c0 81 -2 157 -5 170 -4 21 -2 22 54 18 31 -2 191 -5 355 -5z m947 -23 c5 -611 5 -623 -10 -619 -8 3 -253 7 -545 9 l-530 4 0 129 -1 129 358 0 358 0 0 -110 c0 -76 4 -110 11 -110 9 0 10 30 5 109 l-6 108 141 8 c104 5 138 10 130 18 -8 8 -97 13 -266 15 l-255 4 0 37 c-1 20 -2 93 -4 163 l-3 128 266 2 c146 2 285 4 309 6 41 3 42 2 42 -30z m6755 2 c188 -22 371 -52 405 -67 l35 -15 -40 -12 c-32 -10 -44 -10 -60 0 -61 39 -214 20 -202 -25 4 -16 -2 -21 -37 -26 -43 -7 -86 -39 -86 -63 0 -10 -7 -13 -22 -8 -13 3 -31 6 -40 6 -10 0 -18 8 -18 17 0 9 -7 25 -17 35 -14 16 -14 20 -1 36 8 9 13 24 11 34 -7 27 -72 53 -135 53 -47 0 -55 2 -44 13 22 22 89 42 126 37 19 -3 76 -10 125 -15z m-5678 -72 c-3 -8 -6 -5 -6 6 -1 11 2 17 5 13 3 -3 4 -12 1 -19z m5522 -5 c41 -13 49 -19 40 -29 -13 -16 -108 -10 -147 9 l-23 11 28 12 c38 17 43 17 102 -3z m-5522 -45 c-3 -7 -5 -2 -5 12 0 14 2 19 5 13 2 -7 2 -19 0 -25z m5977 3 c40 -16 -48 -28 -107 -15 -28 6 -29 8 -12 15 25 10 94 10 119 0z m-5965 -178 c1 -135 6 -267 17 -485 5 -102 -2 -130 -22 -96 -4 6 -7 169 -6 362 1 392 1 356 6 356 2 0 5 -62 5 -137z m3639 -18 c-3 -24 -14 -30 -116 -65 -125 -44 -299 -117 -308 -131 -10 -16 61 3 241 67 98 35 179 64 180 64 1 0 0 -12 -1 -27 -1 -16 -2 -79 -3 -141 l-1 -112 -53 -34 c-121 -78 -233 -237 -270 -386 -10 -37 -21 -59 -35 -66 -12 -6 -30 -18 -39 -26 -10 -9 -94 -39 -188 -68 -93 -29 -210 -70 -259 -91 -50 -21 -91 -37 -92 -36 -1 1 -4 83 -8 182 -7 209 -11 247 -37 374 -19 95 -51 156 -88 168 -57 17 -57 20 4 37 93 27 227 66 255 76 14 5 99 32 190 60 91 29 194 62 230 75 36 13 128 44 205 70 77 26 151 53 165 60 22 12 25 11 28 -6 2 -10 2 -30 0 -44z m1936 3 c19 -186 18 -235 -9 -377 -28 -149 -27 -181 6 -258 21 -50 17 -54 -17 -14 -13 16 -35 32 -49 35 -29 7 -27 0 -55 211 -12 88 -28 186 -36 218 -8 32 -14 60 -14 62 0 2 10 5 21 7 28 4 107 114 108 151 1 20 6 27 20 27 16 0 20 -10 25 -62z m123 52 c33 0 34 -1 28 -29 -5 -23 -1 -35 16 -52 12 -12 23 -36 24 -54 1 -23 14 -45 41 -72 53 -55 109 -68 274 -60 73 3 133 1 143 -4 9 -6 33 -31 52 -56 l35 -46 -20 -22 c-25 -27 -26 -49 -2 -42 9 3 26 9 37 12 16 5 28 -3 53 -39 19 -25 31 -46 29 -46 -2 0 -66 31 -143 69 -137 68 -332 147 -341 138 -4 -4 102 -57 113 -57 4 0 310 -153 395 -197 41 -21 53 -40 42 -66 -5 -12 -7 -30 -5 -41 3 -15 10 -17 37 -13 32 5 37 2 89 -64 31 -38 50 -69 43 -69 -6 0 -63 -3 -125 -7 -81 -4 -116 -3 -121 5 -5 8 -25 -2 -60 -28 -69 -52 -93 -54 -231 -16 -47 13 -123 26 -170 29 -118 7 -229 50 -287 113 -64 69 -75 129 -49 259 22 105 24 123 25 213 l1 83 45 -27 c59 -34 57 -16 -6 51 -43 46 -52 62 -57 101 l-5 47 33 -6 c18 -4 48 -7 67 -7z m-7901 -94 c1 0 4 -58 7 -128 l6 -128 -152 0 c-223 0 -500 -11 -517 -21 -9 -5 14 -9 60 -9 41 0 113 -3 159 -7 l84 -6 -8 -156 c-3 -86 -10 -159 -13 -163 -4 -3 -73 -8 -155 -10 l-147 -3 0 322 0 322 338 -6 c185 -3 338 -6 338 -7z m12586 -66 c22 -27 23 -50 4 -95 -15 -34 -16 -35 -75 -35 -45 0 -61 4 -61 14 0 7 -3 34 -6 58 -5 39 -3 49 16 68 18 18 30 21 64 17 25 -4 48 -14 58 -27z m-6092 -196 c41 -16 92 -38 113 -50 l38 -21 71 34 c66 33 76 35 171 35 78 0 117 -5 166 -21 35 -11 72 -21 81 -21 10 0 69 -16 130 -35 61 -19 122 -35 134 -35 14 0 59 -34 124 -95 56 -52 116 -101 134 -109 18 -8 96 -75 173 -150 150 -146 165 -154 300 -176 84 -13 72 7 -22 37 -46 14 -53 20 -53 42 0 41 11 49 75 51 110 4 102 10 103 -77 1 -69 -2 -78 -24 -95 -13 -11 -24 -26 -24 -34 0 -17 -2 -17 -33 -3 -19 9 -32 7 -64 -9 l-39 -20 -60 50 c-84 72 -216 200 -237 231 -10 15 -51 42 -91 62 -44 21 -84 48 -99 68 -44 57 -93 99 -133 113 -56 20 -176 53 -269 74 -44 10 -91 21 -105 24 -14 3 -2 -5 25 -18 28 -14 58 -25 67 -25 19 -1 229 -66 274 -86 17 -7 50 -37 75 -66 39 -47 41 -52 19 -45 -50 15 -293 19 -325 5 l-30 -13 55 -7 c30 -4 89 -16 130 -28 73 -21 217 -30 240 -16 17 10 113 -41 146 -77 76 -85 213 -214 251 -238 l43 -27 -78 -38 c-93 -44 -168 -93 -203 -132 -30 -33 -89 -126 -89 -140 0 -5 -9 -18 -20 -28 -11 -10 -17 -22 -14 -26 3 -5 0 -9 -7 -9 -16 0 -159 73 -159 81 0 3 27 9 59 12 33 3 65 8 72 13 28 17 -31 23 -182 18 -131 -4 -158 -2 -169 11 -20 25 -145 114 -233 167 -45 27 -71 47 -57 44 14 -3 72 -8 130 -11 58 -4 159 -13 225 -21 141 -16 173 -17 160 -5 -19 17 -113 42 -196 51 -46 5 -178 14 -293 20 -162 8 -213 13 -226 25 -22 20 -114 207 -135 275 -9 30 -31 84 -48 119 l-30 65 17 50 c10 28 25 59 34 69 31 35 5 26 -35 -12 -62 -60 -65 -122 -10 -224 15 -27 29 -65 33 -85 3 -21 19 -53 35 -74 15 -20 41 -66 56 -102 l27 -66 -42 -43 c-45 -46 -52 -60 -24 -50 15 6 15 5 3 -11 -20 -24 -57 -42 -129 -60 -55 -15 -69 -15 -131 -2 -78 16 -135 42 -125 57 3 5 1 16 -5 23 -9 11 -6 15 14 20 17 4 43 -3 84 -23 68 -35 153 -50 176 -31 22 18 12 26 -53 40 -170 36 -237 132 -177 255 14 30 49 78 76 106 27 28 49 52 49 54 0 16 -72 -27 -107 -63 -46 -47 -52 -48 -28 -3 21 41 100 107 151 127 45 17 50 34 11 34 -62 -1 -177 -85 -198 -145 -7 -19 -16 -32 -21 -29 -13 8 2 72 32 139 15 33 23 62 18 64 -15 5 -45 -28 -68 -77 l-22 -46 -15 25 c-17 29 -66 64 -103 74 -21 6 -17 -2 26 -46 46 -48 74 -87 74 -103 0 -3 -9 3 -19 13 -29 29 -131 54 -131 32 0 -5 19 -16 43 -26 81 -32 117 -86 117 -175 0 -55 -20 -104 -48 -119 -14 -8 -30 1 -78 41 -56 49 -163 108 -194 108 -7 0 15 -21 50 -46 87 -64 199 -177 244 -247 44 -71 64 -145 48 -181 -10 -22 -14 -24 -40 -14 -24 9 -37 7 -78 -12 -55 -27 -74 -27 -189 1 -175 42 -198 51 -237 94 -37 39 -37 40 -38 14 0 -18 24 -56 75 -120 86 -107 95 -142 38 -147 -84 -8 -164 81 -231 258 -36 96 -36 106 -1 154 35 50 112 96 157 96 40 0 50 16 14 23 -84 17 -197 -56 -243 -156 -13 -29 -46 -36 -67 -15 -21 21 -14 100 14 156 53 106 208 191 321 175 26 -3 43 -2 43 4 0 15 -36 23 -107 23 -35 0 -63 2 -63 5 0 9 42 112 68 164 46 95 160 204 275 262 211 108 430 135 597 73z m2206 -19 c-24 -30 -47 -60 -49 -67 -4 -9 -14 -3 -32 16 l-27 30 73 37 c41 21 75 38 77 39 2 0 -17 -25 -42 -55z m-7579 -340 c1 -181 4 -378 6 -437 2 -75 0 -109 -8 -112 -6 -2 -48 -4 -93 -4 l-82 0 0 88 c0 49 -3 95 -6 104 -5 13 3 16 47 16 58 0 96 14 68 25 -8 3 -64 7 -124 9 -61 3 -112 5 -115 5 -3 1 -5 40 -5 89 0 48 -4 108 -7 134 l-7 46 87 8 c82 7 84 8 42 15 -25 4 -143 8 -262 10 l-218 3 0 163 0 163 273 3 c149 1 301 3 337 2 l65 0 2 -330z m-712 165 c0 -99 -4 -161 -10 -162 -5 -1 -176 -2 -378 -2 l-369 -1 5 160 c3 88 6 161 6 163 1 1 169 2 374 2 l372 0 0 -160z m4317 136 c19 -8 39 -26 46 -40 27 -59 52 -245 63 -456 l11 -220 -31 -29 c-42 -39 -58 -81 -71 -186 -9 -76 -6 -255 6 -335 4 -31 38 -60 71 -60 l25 0 -6 -187 c-3 -104 -6 -279 -8 -390 -1 -112 -5 -203 -10 -203 -8 0 -344 85 -380 96 -16 5 -18 20 -18 130 0 78 -4 133 -12 147 -8 15 -13 99 -14 267 -2 272 -21 836 -30 918 -6 52 -7 53 -106 138 -55 47 -109 91 -119 97 -23 14 -24 49 -3 82 20 31 164 127 246 164 71 32 159 57 246 70 31 5 58 9 58 10 1 0 17 -5 36 -13z m4036 -106 c-36 -44 -43 -47 -51 -25 -4 9 8 22 36 39 23 13 43 24 45 25 2 1 -12 -17 -30 -39z m3982 -6 c0 -3 -16 -33 -36 -65 l-37 -59 -46 35 c-25 20 -68 49 -96 65 l-50 30 133 0 c72 0 132 -3 132 -6z m-253 -47 c15 -13 35 -28 44 -33 9 -5 37 -28 62 -51 l45 -42 -73 -128 c-40 -70 -117 -215 -171 -322 l-99 -195 -80 -34 c-95 -40 -248 -98 -400 -152 -60 -21 -193 -68 -295 -104 -101 -36 -186 -63 -189 -60 -3 3 -13 24 -22 48 -28 75 -129 217 -214 302 -148 149 -331 247 -518 278 l-71 12 150 37 c326 82 434 111 559 149 72 22 247 69 390 104 143 35 321 80 395 100 74 19 195 50 268 69 74 18 136 36 140 39 13 13 52 5 79 -17z m-3599 -29 c-19 -24 -41 -54 -48 -67 -12 -24 -13 -24 -26 -6 -8 11 -13 23 -12 27 3 8 108 88 116 88 2 0 -11 -19 -30 -42z m-173 -38 c3 -5 -1 -10 -10 -10 -9 0 -13 5 -10 10 3 6 8 10 10 10 2 0 7 -4 10 -10z m298 -73 c-43 -63 -83 -86 -108 -61 -8 9 -15 17 -15 19 0 7 153 105 157 101 2 -2 -13 -29 -34 -59z m-6853 -119 c0 -94 -2 -169 -4 -167 -2 2 -6 79 -10 172 -5 114 -4 167 4 167 6 0 10 -59 10 -172z m110 -42 c1 -189 4 -263 15 -363 l5 -42 -45 2 c-25 1 -45 7 -46 12 -1 6 -2 120 -3 255 -1 135 -6 268 -10 295 l-8 50 46 -3 46 -4 0 -202z m6980 179 c0 -3 -11 -10 -25 -15 -13 -5 -45 -37 -70 -72 -26 -34 -55 -68 -65 -75 -30 -21 -140 -51 -215 -58 -83 -8 -184 -61 -285 -150 -14 -13 -44 -25 -68 -29 -24 -4 -71 -20 -105 -37 -38 -20 -63 -27 -65 -20 -2 6 -14 8 -28 5 -15 -4 -41 1 -65 11 -32 15 -39 23 -39 47 0 35 30 49 75 37 35 -10 129 -12 174 -3 61 13 17 24 -92 24 l-112 0 -2 76 c-1 64 1 75 14 70 8 -3 18 -6 22 -6 4 0 21 -11 36 -24 24 -21 26 -27 16 -40 -19 -22 -44 -8 -37 20 5 17 2 24 -9 24 -18 0 -31 -48 -18 -68 28 -46 110 -17 100 35 -4 23 -2 25 26 20 47 -7 94 10 132 48 32 32 37 34 80 29 41 -6 45 -9 44 -33 -1 -17 -3 -20 -6 -8 -6 23 -23 22 -23 -2 0 -10 -16 -35 -36 -55 -47 -47 -35 -65 19 -27 56 38 101 60 232 114 61 25 157 67 215 94 163 77 180 83 180 68z m467 -38 c47 -17 116 -69 147 -110 16 -21 36 -68 47 -113 l19 -77 -21 -81 c-24 -90 -45 -136 -82 -181 -116 -140 -182 -225 -195 -253 -12 -24 -20 -31 -35 -26 -10 3 -59 17 -109 30 -49 13 -132 42 -184 63 -52 21 -93 34 -92 29 7 -21 134 -89 213 -114 45 -15 107 -26 143 -27 69 -2 65 -5 148 97 l32 38 138 -35 c77 -19 158 -38 182 -42 l44 -7 -6 -47 c-17 -133 -27 -333 -32 -676 -4 -209 -8 -381 -9 -383 -2 -2 -20 1 -41 7 -81 21 -454 55 -839 77 -139 7 -523 34 -565 39 -19 2 -66 7 -105 10 -81 8 -104 24 -142 100 -44 87 -64 157 -70 251 -7 119 19 212 75 261 46 40 36 52 -20 25 -23 -12 -43 -20 -45 -18 -16 15 -52 184 -52 246 -1 85 -9 138 -22 146 -11 6 -12 -12 -9 -201 2 -150 10 -205 20 -130 l5 40 17 -48 c17 -46 17 -49 0 -42 -9 4 -43 9 -76 12 l-58 6 4 243 c4 185 8 247 19 260 7 9 39 33 70 55 38 26 63 52 78 81 l21 43 0 -50 c0 -27 4 -88 9 -135 6 -47 12 -146 15 -220 5 -135 19 -208 50 -255 23 -35 40 -32 33 5 l-6 29 100 -35 c155 -54 227 -92 296 -156 46 -42 70 -58 90 -58 39 1 63 22 66 59 2 26 6 31 28 31 31 0 49 17 49 47 0 16 4 21 15 17 8 -4 27 1 41 11 20 13 25 23 21 42 -3 17 3 32 20 49 14 14 23 33 21 42 -4 14 12 25 73 51 85 37 159 90 125 91 -23 0 -196 -74 -250 -108 -37 -23 -46 -24 -130 -19 -301 20 -327 18 -166 -13 l85 -16 -80 -18 c-88 -21 -116 -21 -220 -7 -38 6 -98 13 -133 17 -53 5 -63 9 -67 27 -7 36 -15 125 -20 242 -3 60 -10 137 -15 170 -5 33 -10 82 -12 109 l-2 49 50 17 c27 10 64 25 82 34 l32 16 -6 -30 c-4 -16 -5 -30 -2 -30 2 0 26 21 54 48 27 26 89 74 137 106 48 33 92 65 98 73 7 8 33 13 68 13 82 0 195 24 229 49 42 29 73 69 96 119 l19 42 211 3 c116 1 220 3 231 4 11 1 34 -4 52 -10z m-10014 -18 l347 -2 0 -78 c0 -66 3 -79 16 -79 14 0 16 12 13 78 l-4 77 346 3 347 3 1 -141 1 -141 -71 3 -71 3 -12 35 c-6 19 -22 40 -36 47 -18 9 -124 12 -420 10 -434 -2 -429 -1 -460 -63 -8 -16 -15 -30 -16 -32 0 -1 -84 -5 -186 -8 l-184 -6 2 64 c2 35 3 103 4 151 0 80 2 88 18 83 10 -3 174 -7 365 -7z m7842 1 c4 -6 -10 -10 -37 -9 -40 1 -41 2 -13 9 43 11 43 11 50 0z m430 -90 c7 0 12 -17 11 -44 -1 -55 -15 -52 -85 25 -70 78 -68 98 6 53 31 -19 62 -34 68 -34z m765 -20 c-20 -13 -40 -13 -40 0 0 6 12 10 28 10 21 0 24 -2 12 -10z m-706 -22 c-4 -13 -8 -31 -8 -40 -1 -37 -16 -16 -16 22 0 30 4 40 16 40 11 0 13 -6 8 -22z m-8250 -94 c35 -35 33 -132 -4 -168 l-21 -21 -21 25 c-16 20 -19 34 -15 75 5 52 25 105 38 105 4 0 15 -7 23 -16z m792 -19 c17 -40 18 -67 4 -116 l-10 -36 -371 -1 -370 -1 8 22 c11 30 7 111 -7 136 -11 21 -10 21 317 24 180 1 347 3 371 5 40 2 44 0 58 -33z m4733 -67 c-46 -133 4 -243 92 -204 13 6 20 -8 38 -71 32 -110 52 -151 101 -206 80 -90 175 -114 231 -58 35 36 36 55 4 115 -13 25 -23 46 -21 46 2 0 17 -5 35 -11 25 -9 31 -16 31 -39 0 -16 4 -31 9 -34 4 -3 6 -16 4 -28 -2 -13 1 -37 7 -53 l12 -30 19 24 c14 18 19 19 19 7 0 -23 15 -20 28 7 8 17 11 18 11 5 1 -10 7 -18 15 -18 9 0 15 17 18 50 3 28 8 53 11 57 4 3 20 -8 36 -26 16 -17 36 -31 43 -31 26 0 97 44 142 88 57 55 68 107 39 186 l-20 53 31 -18 c50 -29 158 -50 221 -43 45 6 55 4 55 -8 0 -9 10 -22 23 -31 21 -14 18 -15 -58 -32 -128 -27 -171 -44 -224 -87 -67 -55 -93 -110 -99 -208 -5 -87 16 -159 69 -237 16 -24 29 -46 29 -48 0 -2 -21 2 -47 10 -27 7 -68 16 -93 20 -25 4 -97 20 -160 35 -63 15 -198 42 -300 59 -102 18 -221 38 -265 46 -74 13 -298 48 -504 80 -56 8 -88 18 -96 29 -9 12 -12 65 -10 189 3 182 16 257 53 290 29 26 424 172 478 176 7 1 4 -18 -7 -51z m-7191 22 c23 0 42 -4 42 -10 0 -6 -118 -10 -335 -10 -283 0 -335 2 -335 14 0 12 44 14 293 11 160 -3 311 -5 335 -5z m6202 -2 c0 -11 -183 -13 -1002 -11 -552 0 -1005 3 -1008 4 -3 2 362 6 810 9 448 3 902 6 1008 8 153 3 192 1 192 -10z m1905 -29 c20 -37 13 -47 -19 -29 -21 11 -23 16 -14 36 6 13 13 24 14 24 2 0 11 -14 19 -31z m-6772 11 l102 0 -1 -48 c0 -26 -1 -72 -2 -104 l-2 -56 -119 -1 -119 -1 2 107 c2 60 4 110 5 112 0 2 8 0 17 -3 9 -3 61 -6 117 -6z m227 -31 c0 -17 5 -39 10 -49 8 -15 6 -24 -11 -41 -11 -11 -27 -35 -34 -53 -11 -27 -20 -33 -44 -34 l-31 -1 0 105 0 104 55 0 c55 0 55 0 55 -31z m1225 -70 c0 -81 -3 -99 -15 -100 -14 -1 -89 -1 -171 1 -33 0 -37 3 -43 31 -3 17 -19 43 -35 59 -27 27 -28 31 -18 69 l11 41 136 -1 135 0 0 -100z m5269 18 c-11 -6 -19 -3 -29 10 -12 15 -11 19 3 24 10 4 22 0 30 -9 10 -13 9 -18 -4 -25z m2004 9 c26 -19 60 -38 75 -41 15 -4 30 -11 33 -16 8 -13 -91 -106 -139 -131 -57 -28 -213 -187 -237 -240 -32 -71 -28 -86 33 -112 28 -13 76 -29 105 -36 l52 -14 0 -83 c0 -77 2 -84 25 -99 17 -11 29 -13 38 -7 7 6 34 4 73 -4 l60 -14 -17 -67 c-27 -102 -25 -232 5 -324 14 -42 37 -97 51 -123 15 -26 25 -48 23 -50 -14 -14 -536 82 -768 142 -74 19 -173 43 -220 54 -107 24 -273 75 -420 129 -199 73 -433 149 -494 161 -53 10 -67 18 -122 72 -85 81 -118 158 -118 272 -1 116 27 175 95 205 27 11 100 32 161 46 72 15 125 33 148 49 20 14 42 25 48 25 32 0 117 56 174 116 l64 66 55 -46 c30 -25 102 -81 160 -125 94 -69 113 -79 162 -85 49 -6 176 -52 193 -69 4 -3 -15 -4 -42 -1 -164 16 -173 19 -233 74 -18 17 -35 29 -38 27 -2 -3 2 -21 11 -40 28 -69 148 -107 337 -107 64 0 69 -1 81 -27 20 -42 92 -73 185 -80 70 -5 76 -4 63 10 -8 8 -51 22 -95 31 -100 21 -149 50 -115 71 6 3 35 48 65 100 59 100 87 129 187 188 34 21 99 60 143 87 44 26 86 48 92 49 7 1 34 -14 61 -33z m-10018 -126 l0 -150 -335 0 -335 0 0 150 0 150 335 0 335 0 0 -150z m6160 77 c0 -41 3 -108 6 -150 l7 -77 -1092 0 -1091 0 0 60 c0 43 3 58 13 55 26 -9 124 -13 136 -6 9 6 15 40 19 100 l5 91 998 0 999 0 0 -73z m2468 37 c23 -4 42 -10 42 -14 0 -12 -74 -76 -121 -106 -53 -33 -96 -46 -131 -38 -39 8 -35 19 17 44 49 24 70 51 62 81 -6 23 38 51 68 44 11 -3 39 -8 63 -11z m-7013 -74 c24 -46 19 -71 -6 -30 -21 35 -40 52 -47 45 -2 -2 3 -14 12 -27 22 -31 20 -80 -4 -111 -25 -32 -25 -41 1 -34 13 3 19 1 16 -6 -2 -7 -13 -13 -25 -15 -15 -2 -25 6 -37 28 -19 37 -14 90 16 158 16 38 21 42 39 32 11 -6 27 -24 35 -40z m860 -16 c16 -56 19 -103 9 -153 l-6 -31 -432 -2 c-237 -2 -432 -2 -434 -2 -2 1 7 19 20 40 17 28 23 54 23 96 l0 58 79 0 c103 0 94 8 -13 13 -61 3 -86 8 -92 19 -7 13 39 15 411 14 l420 0 15 -52z m-1005 -113 c0 -10 11 -35 25 -55 l24 -36 -242 0 c-133 0 -253 -3 -267 -6 -21 -4 -18 1 19 33 24 21 54 49 67 63 l23 25 175 -3 c162 -3 176 -4 176 -21z m1559 -23 c27 -24 52 -48 55 -55 4 -10 -61 -12 -286 -12 l-290 0 6 22 c4 12 9 37 13 55 l6 32 223 0 223 0 50 -42z m6926 -40 c-9 -35 -13 -77 -14 -151 l-1 -68 -37 20 c-21 11 -55 25 -75 31 -21 6 -38 16 -38 22 0 9 157 168 166 168 2 0 2 -10 -1 -22z m4488 -18 c62 -10 130 -21 151 -22 l39 -4 4 -84 c5 -122 4 -150 -6 -168 -8 -13 -247 -127 -310 -147 -23 -7 -23 -6 -18 46 4 30 8 132 9 227 1 94 6 172 11 172 4 0 58 -9 120 -20z m-14443 -70 l0 -40 -47 0 -48 0 45 40 c25 21 46 39 48 40 1 0 2 -18 2 -40z m4056 0 l57 -40 -62 0 -62 0 3 40 c1 22 3 40 5 40 1 0 28 -18 59 -40z m10738 29 c1 -2 0 -55 -2 -116 l-4 -113 -37 0 c-34 0 -37 3 -49 41 -7 22 -10 45 -6 50 3 5 1 16 -6 24 -7 9 -8 15 0 20 5 3 10 29 10 57 l0 51 45 -6 c26 -2 47 -6 49 -8z m-13839 -34 c-53 -45 -79 -46 -35 0 19 19 43 35 54 35 17 0 14 -6 -19 -35z m317 -1 l-16 -34 -137 0 -138 0 22 35 22 35 132 -1 131 -2 -16 -33z m296 21 c7 -3 12 -15 10 -27 -3 -22 -6 -23 -140 -26 -76 -1 -138 0 -138 2 0 18 25 56 39 58 22 4 213 -2 229 -7z m280 6 c51 -1 52 -2 52 -31 l0 -30 -145 0 -145 0 0 29 c0 34 11 37 120 34 36 -1 89 -2 118 -2z m358 -5 c6 -3 14 -16 16 -30 l5 -26 -142 0 -143 0 -4 30 -4 29 65 3 c73 3 190 0 207 -6z m494 -11 c0 -7 3 -20 6 -29 5 -14 -8 -16 -104 -16 l-110 0 -10 29 c-6 17 -7 31 -1 33 5 2 56 2 114 0 80 -3 105 -6 105 -17z m199 -11 c6 -14 11 -27 11 -29 0 -3 -35 -5 -78 -5 -77 0 -78 0 -89 29 -6 17 -9 31 -8 33 2 2 37 2 78 0 68 -3 75 -6 86 -28z m271 -2 l35 -32 -125 2 c-122 3 -125 4 -137 28 -11 22 -10 26 9 30 11 3 57 5 101 5 78 0 83 -1 117 -33z m4603 1 c-7 -18 -33 -16 -55 4 -28 25 -22 31 21 20 26 -7 37 -15 34 -24z m7097 -218 c0 -223 -2 -256 -16 -262 -34 -13 -36 10 -29 266 7 236 9 251 26 251 18 0 19 -13 19 -255z m-12430 231 c0 -8 3 -21 6 -30 5 -14 -6 -16 -90 -16 -76 0 -96 3 -96 14 0 8 -3 21 -6 30 -5 14 6 16 90 16 76 0 96 -3 96 -14z m-2300 -227 l0 -119 -115 0 -115 0 0 119 c0 69 4 121 10 123 5 2 57 2 115 0 l105 -3 0 -120z m540 0 l0 -119 -105 0 -105 0 0 119 0 120 33 3 c17 2 65 2 105 0 l72 -4 0 -119z m813 122 l77 -1 0 -120 0 -120 -145 0 -145 0 1 119 0 120 32 3 c18 2 48 2 67 1 19 -1 70 -2 113 -2z m380 0 l27 -1 0 -120 0 -120 -144 0 -143 0 0 120 0 119 51 3 c44 3 104 2 209 -1z m345 -1 c9 0 12 -31 12 -120 l0 -120 -144 0 -145 0 0 111 c-1 61 -3 115 -6 119 -7 12 41 15 165 13 58 -1 111 -3 118 -3z m522 -121 l0 -119 -110 0 -110 0 -1 103 c-1 56 -2 109 -3 117 -1 18 58 27 157 22 l67 -4 0 -119z m200 4 l0 -123 -79 0 -80 0 0 123 -1 122 80 0 80 0 0 -122z m421 117 l89 0 0 -120 0 -120 -112 0 -113 0 3 112 c3 128 6 143 28 134 9 -3 56 -6 105 -6z m707 0 l42 0 0 -120 0 -120 -155 0 -155 0 -1 68 c0 37 -2 89 -4 117 -2 27 -2 52 0 55 2 3 54 4 117 3 62 -1 132 -2 156 -3z m-3646 -16 c2 -9 2 -63 0 -120 l-3 -104 -117 0 -117 0 3 120 3 120 114 0 c97 0 114 -2 117 -16z m478 -104 l0 -120 -90 0 -90 0 0 120 0 120 90 0 90 0 0 -120z m340 0 l0 -120 -150 0 -150 0 0 120 0 120 150 0 150 0 0 -120z m1238 -2 l4 -118 -106 0 -106 0 0 120 0 121 102 -3 103 -3 3 -117z m702 2 l0 -120 -100 0 -100 0 0 120 0 120 100 0 100 0 0 -120z m561 116 c2 -2 3 -56 1 -120 l-3 -116 -125 0 -124 0 0 120 0 120 123 0 c68 0 126 -2 128 -4z m6101 -20 c35 -13 71 -27 81 -30 9 -3 17 -12 17 -20 0 -11 -20 -7 -94 17 -73 25 -92 35 -84 44 13 16 7 17 80 -11z m-3102 -521 c0 -287 -3 -395 -11 -395 -8 0 -10 51 -6 188 4 103 6 280 7 395 0 114 2 207 5 207 3 0 5 -178 5 -395z m185 366 c66 -11 156 -27 200 -35 44 -8 134 -22 200 -31 181 -24 432 -72 605 -117 85 -23 191 -50 235 -60 185 -46 341 -93 525 -160 345 -125 566 -193 735 -227 50 -11 169 -37 266 -60 184 -43 413 -79 659 -105 296 -31 457 -41 970 -61 297 -11 369 -16 460 -31 l95 -16 1 -669 c0 -462 -3 -668 -11 -666 -5 2 -57 19 -115 36 -58 18 -143 46 -190 62 -90 30 -364 116 -490 154 -41 12 -113 34 -160 48 -47 14 -213 65 -370 112 -157 47 -337 102 -400 120 -145 43 -291 87 -422 126 -129 39 -186 56 -268 79 -36 10 -135 38 -220 63 -85 25 -222 64 -305 87 -82 23 -170 48 -195 55 -70 21 -452 128 -680 190 -113 30 -245 66 -295 80 -128 35 -311 82 -445 115 -63 15 -187 47 -275 70 -183 48 -169 44 -217 55 l-38 7 0 399 c0 313 3 399 13 399 6 0 66 -9 132 -19z m4055 9 c0 -5 -11 -17 -25 -26 -21 -14 -31 -15 -50 -6 -38 17 -30 -3 10 -28 19 -12 33 -26 29 -31 -8 -14 -60 -11 -73 5 -14 17 -71 39 -71 27 0 -4 14 -20 30 -34 31 -28 41 -67 17 -67 -8 0 -33 14 -56 30 -23 17 -56 33 -74 37 l-32 6 48 -42 c38 -35 47 -49 47 -76 0 -62 -20 -57 -122 33 -31 27 -79 60 -107 72 -28 13 -48 27 -45 32 3 4 33 8 67 8 34 0 96 10 137 21 41 12 109 25 150 30 41 5 80 11 85 13 19 8 35 6 35 -4z m-12866 -14 c65 -27 63 -17 65 -444 l2 -387 -78 -101 c-43 -55 -112 -143 -153 -195 -42 -52 -107 -137 -144 -189 -38 -52 -71 -97 -73 -99 -3 -5 -140 57 -156 70 -13 10 81 147 221 319 16 19 59 78 97 130 37 52 72 97 77 98 5 2 8 177 7 395 -1 365 0 392 17 404 23 17 76 17 118 -1z m8023 -356 c52 -11 81 -25 72 -35 -3 -3 -26 2 -50 10 -30 11 -81 16 -156 16 -62 1 -116 5 -119 10 -7 12 194 11 253 -1z m-195 -69 c24 -6 57 -12 73 -16 39 -7 162 -8 174 -1 17 11 21 -26 21 -204 l0 -178 -47 -19 c-30 -11 -74 -18 -118 -18 -58 0 -80 5 -130 30 l-60 30 -3 209 -2 209 24 -17 c14 -8 44 -20 68 -25z m-134 5 c2 -10 0 -16 -6 -12 -6 3 -18 -1 -26 -10 -24 -24 -20 -92 10 -152 29 -58 28 -93 0 -49 -46 69 -62 199 -30 232 21 20 48 16 52 -9z m8789 -2 c-3 -3 -12 -4 -19 -1 -8 3 -5 6 6 6 11 1 17 -2 13 -5z m40 -10 c-3 -3 -12 -4 -19 -1 -8 3 -5 6 6 6 11 1 17 -2 13 -5z m56 -11 c-7 -2 -21 -2 -30 0 -10 3 -4 5 12 5 17 0 24 -2 18 -5z m75 -10 c-10 -2 -28 -2 -40 0 -13 2 -5 4 17 4 22 1 32 -1 23 -4z m-8959 -50 c-1 -47 -1 -47 -9 -14 -7 31 -4 61 6 61 2 0 4 -21 3 -47z m-7640 -423 c-18 -22 -34 -40 -37 -40 -5 0 12 24 42 58 33 37 29 25 -5 -18z m2937 -24 c22 -7 162 -68 312 -135 150 -66 275 -121 277 -121 3 0 28 -11 57 -24 29 -13 105 -46 168 -72 l115 -49 -529 -3 -529 -2 -346 166 c-190 92 -386 185 -436 206 -49 22 -92 42 -94 44 -2 2 214 4 481 4 386 0 493 -3 524 -14z m358 -42 c123 -57 318 -141 456 -196 41 -16 93 -38 115 -48 22 -10 85 -37 140 -59 55 -23 109 -46 120 -51 14 -6 -11 -9 -76 -9 -91 -1 -99 1 -177 39 -45 21 -115 53 -154 71 -74 32 -123 53 -200 88 -50 22 -424 180 -483 204 l-40 16 89 0 c88 1 91 0 210 -55z m-974 -176 c262 -128 343 -166 423 -198 l57 -24 0 -108 c0 -59 -2 -108 -4 -108 -4 0 -62 30 -301 155 -60 32 -197 102 -303 156 l-194 97 25 17 c14 9 31 15 39 14 26 -3 36 1 41 20 3 11 -1 22 -8 25 -18 7 -84 -14 -117 -36 -26 -18 -29 -18 -59 -2 l-33 16 25 14 c13 7 45 13 72 14 33 0 47 4 47 14 0 21 -26 27 -86 20 l-54 -5 0 65 0 66 103 -51 c56 -29 203 -101 327 -161z m-417 -26 l27 -19 -31 -44 c-62 -87 -139 -153 -261 -224 l-48 -27 0 49 0 48 64 33 c61 32 121 86 180 165 16 20 31 37 35 37 3 0 18 -8 34 -18z m-2353 -262 c0 -3 -15 -11 -32 -18 -31 -11 -40 -9 -125 30 -51 24 -93 48 -93 54 0 5 12 15 28 20 23 8 42 3 124 -36 54 -25 98 -47 98 -50z m4400 -55 l0 -115 -555 0 -555 0 0 115 0 115 555 0 555 0 0 -115z m270 0 l0 -115 -115 0 -115 0 0 115 0 115 115 0 115 0 0 -115z m-4892 56 c20 -10 61 -26 90 -36 36 -11 50 -21 44 -27 -7 -7 -33 -1 -79 16 -83 33 -96 39 -101 54 -5 16 3 15 46 -7z m14429 -453 c-3 -7 -5 -2 -5 12 0 14 2 19 5 13 2 -7 2 -19 0 -25z m0 -40 c-3 -8 -6 -5 -6 6 -1 11 2 17 5 13 3 -3 4 -12 1 -19z m0 -270 c-2 -18 -4 -4 -4 32 0 36 2 50 4 33 2 -18 2 -48 0 -65z" fill="#33505e"/>
<path d="M8458 7269 c-10 -7 -13 -96 -13 -415 0 -354 2 -407 15 -409 36 -5 295 -15 533 -21 l257 -7 0 406 c0 247 -4 416 -10 432 l-10 27 -380 -3 c-209 -1 -385 -6 -392 -10z m82 -28 c0 -5 -6 -12 -12 -14 -7 -3 -2 -6 12 -8 14 -1 30 -3 35 -4 6 -2 30 -3 54 -4 l44 -1 -40 -29 c-45 -33 -81 -78 -93 -119 -6 -19 -9 -1 -9 61 -1 51 -5 87 -11 87 -11 0 -14 -608 -4 -647 16 -58 24 -9 24 142 l0 166 30 -34 c37 -42 37 -47 4 -87 -15 -17 -24 -33 -22 -36 11 -10 37 9 54 41 10 19 22 32 26 29 14 -9 8 -48 -12 -74 -11 -14 -20 -28 -20 -32 0 -17 33 -7 51 15 18 21 19 21 17 2 -2 -13 2 -19 11 -17 21 5 6 -89 -18 -109 -10 -8 -44 -21 -74 -29 -31 -7 -54 -16 -52 -20 4 -7 195 -28 300 -34 33 -1 -30 -2 -140 -2 l-200 1 -2 215 c-1 118 -4 290 -5 383 l-3 167 27 0 c16 0 28 -4 28 -9z m663 -93 c-3 -57 -7 -105 -9 -107 -2 -2 -4 39 -4 92 l0 97 -292 2 -293 3 275 5 c151 3 287 7 302 8 l26 2 -5 -102z m-243 55 c0 -1 -16 -9 -36 -18 -61 -25 -124 -79 -221 -188 -23 -26 -46 -47 -51 -47 -15 0 -37 -51 -34 -79 l4 -26 -21 20 c-31 31 -42 107 -25 174 17 67 36 95 94 139 l42 33 124 -2 c68 -2 124 -4 124 -6z m210 -26 c-8 -40 -47 -87 -69 -86 -11 0 -12 2 -3 6 24 10 11 25 -18 21 -26 -4 -29 -2 -24 15 5 17 3 18 -27 12 -28 -6 -31 -5 -25 10 5 14 2 16 -16 10 -64 -19 -71 -15 -23 14 45 28 58 31 131 31 l82 0 -8 -33z m-135 -57 c-3 -5 -12 -10 -18 -10 -7 0 -6 4 3 10 19 12 23 12 15 0z m-9 -33 c3 -3 8 -23 11 -45 5 -35 3 -41 -18 -47 -45 -14 -56 -33 -63 -108 -4 -40 -2 -86 3 -104 8 -28 7 -32 -12 -35 -11 -2 -22 -9 -25 -16 -3 -9 7 -12 38 -10 41 2 42 3 36 33 -3 16 -9 64 -12 105 -6 65 -4 79 11 94 10 9 27 16 39 14 20 -3 21 -8 18 -88 -3 -96 -29 -242 -47 -266 -11 -15 -20 -15 -121 5 -115 23 -140 37 -147 80 -3 20 -4 18 -6 -11 -2 -54 32 -81 124 -97 34 -5 40 -11 43 -34 l3 -27 -133 1 c-73 1 -123 4 -110 6 37 7 54 45 60 138 5 82 4 85 -17 85 -27 0 -61 54 -61 98 0 81 54 99 92 32 13 -22 26 -40 29 -40 19 0 15 117 -5 137 -8 8 54 77 72 80 9 1 20 9 25 18 15 27 47 32 109 20 33 -7 61 -15 64 -18z m144 -214 c0 -238 0 -238 -19 -207 -10 17 -29 34 -41 37 -21 5 -22 4 -15 -40 6 -44 6 -45 -17 -38 -13 4 -25 9 -26 10 -5 5 25 170 43 234 13 48 13 59 0 98 -19 56 -19 56 6 48 18 -6 20 -4 11 11 -8 14 -4 25 21 51 17 18 33 33 34 33 2 0 3 -107 3 -237z m-433 71 c-2 -3 -12 -2 -21 2 -16 6 -16 8 1 26 18 20 18 20 21 -2 2 -12 2 -24 -1 -26z m352 -17 c0 -12 -4 -31 -9 -42 -6 -15 -9 -8 -9 28 -1 30 3 46 9 42 6 -3 10 -16 9 -28z m81 -389 c0 -23 -3 -26 -26 -19 -14 3 -34 22 -45 41 l-21 35 24 -26 c25 -28 58 -44 58 -28 0 5 -7 26 -15 46 -21 49 -18 55 5 13 11 -19 19 -47 20 -62z m-96 1 c6 -13 -1 -15 -41 -12 -26 2 -54 5 -60 8 -19 7 -4 32 23 39 13 4 29 15 36 26 11 17 13 17 24 -13 6 -18 14 -39 18 -48z m-128 25 c-3 -9 -6 -20 -6 -25 0 -20 -18 -7 -22 16 -4 20 -1 25 14 25 14 0 18 -5 14 -16z m254 -59 l0 -35 -85 0 c-53 0 -85 4 -85 11 0 6 28 9 78 8 77 -2 77 -2 80 24 5 38 12 33 12 -8z m-183 -31 c-3 -3 -12 -4 -19 -1 -8 3 -5 6 6 6 11 1 17 -2 13 -5z" fill="#33505e"/>
<path d="M8813 6994 c-13 -9 -23 -26 -23 -37 0 -20 0 -20 23 1 26 25 58 28 87 10 24 -15 38 -3 24 20 -15 23 -82 26 -111 6z" fill="#33505e"/>
<path d="M8678 6898 c8 -8 9 -15 1 -25 -14 -16 2 -18 18 -2 8 8 11 2 10 -21 -1 -18 3 -35 9 -37 17 -6 13 60 -4 80 -8 9 -22 17 -31 17 -11 0 -12 -3 -3 -12z" fill="#33505e"/>
<path d="M8844 6896 c-9 -23 0 -69 14 -74 8 -2 12 9 12 37 0 41 -16 64 -26 37z" fill="#33505e"/>
<path d="M8994 6885 c-7 -28 0 -55 16 -55 13 0 13 67 0 75 -5 3 -12 -6 -16 -20z" fill="#33505e"/>
<path d="M8800 6747 c0 -34 34 -69 62 -65 32 5 33 26 1 30 -17 2 -32 12 -39 26 -17 35 -24 38 -24 9z" fill="#33505e"/>
<path d="M9675 6339 c4 -222 8 -410 11 -417 3 -10 74 -12 334 -12 l331 1 -3 399 c-2 219 -6 401 -10 405 -25 25 -28 -23 -28 -389 l0 -382 -82 9 c-46 5 -178 6 -293 3 l-210 -6 -1 80 c-1 44 2 80 7 80 5 0 8 -3 8 -7 -1 -5 -1 -34 0 -67 1 -47 4 -57 16 -52 8 3 15 1 15 -4 0 -6 99 -10 259 -10 l259 0 4 38 c7 51 0 599 -7 640 l-6 33 -257 -4 c-141 -2 -265 -7 -275 -11 -17 -8 -18 -26 -14 -278 2 -148 1 -265 -3 -261 -4 4 -10 137 -14 296 l-6 287 23 0 c12 0 123 -5 247 -11 217 -9 320 -6 320 11 0 14 -76 19 -358 26 l-273 7 6 -404z m595 143 c0 -145 -3 -181 -14 -185 -39 -15 -66 45 -66 144 0 51 -3 70 -12 67 -26 -9 -37 -138 -17 -197 10 -29 9 -35 -16 -61 -53 -55 -239 -80 -281 -38 -27 26 -1 93 62 161 30 32 54 66 54 75 0 9 11 40 24 69 42 89 125 127 207 93 40 -17 48 -5 10 14 -33 17 -126 22 -136 7 -3 -5 -18 -12 -34 -16 -16 -3 -43 -19 -59 -35 -31 -29 -72 -123 -72 -164 0 -30 -45 -71 -78 -71 -40 0 -58 -43 -42 -100 11 -38 18 -47 62 -67 47 -22 49 -25 34 -40 -9 -9 -16 -22 -16 -28 0 -6 -4 -9 -8 -6 -4 2 -14 1 -22 -4 -11 -7 -11 -12 -2 -23 7 -7 9 -17 6 -20 -4 -4 0 -17 9 -31 l16 -24 -55 -4 c-31 -1 -59 -1 -62 2 -4 3 -8 151 -9 330 l-3 325 260 4 260 3 0 -180z m0 -363 l0 -129 -60 0 -60 0 20 33 c42 69 58 103 64 139 6 34 4 38 -24 53 -41 21 -26 43 25 37 l35 -4 0 -129z m-88 68 l28 -12 -51 -92 c-27 -51 -54 -93 -59 -93 -4 0 -12 28 -17 62 -6 46 -12 64 -25 66 -11 2 -18 -7 -23 -30 l-8 -33 -39 45 -40 45 54 11 c29 6 67 17 83 26 37 19 62 21 97 5z m-149 -144 c9 3 17 18 20 34 3 21 4 17 6 -14 0 -23 4 -49 7 -58 6 -14 -3 -16 -68 -14 -76 2 -95 10 -128 54 -10 15 -7 13 13 -4 15 -14 30 -22 33 -18 4 3 -8 18 -25 33 -43 36 -32 43 14 9 43 -33 60 -25 22 11 -15 14 -27 28 -27 31 0 4 10 -3 23 -15 32 -30 57 -29 30 1 -45 49 -33 48 14 -2 33 -35 56 -52 66 -48z" fill="#33505e"/>
<path d="M10083 6504 c-10 -25 -10 -140 0 -150 14 -14 21 8 25 77 4 72 -9 112 -25 73z" fill="#33505e"/>
<path d="M10016 6459 c-7 -41 -2 -59 15 -59 11 0 12 87 0 94 -5 3 -11 -13 -15 -35z" fill="#33505e"/>
<path d="M10077 6296 c-3 -8 -22 -18 -41 -22 -42 -7 -47 -21 -10 -30 41 -10 79 7 79 35 0 28 -20 39 -28 17z" fill="#33505e"/>
<path d="M9786 6151 c-10 -11 -16 -25 -14 -32 2 -7 12 0 22 16 21 32 16 43 -8 16z" fill="#33505e"/>
<path d="M9801 6116 c-16 -19 -27 -96 -15 -96 9 0 37 100 30 107 -2 2 -9 -3 -15 -11z" fill="#33505e"/>
<path d="M13801 6815 c-46 -21 -35 -28 14 -10 22 8 57 14 77 15 44 0 148 -34 198 -65 19 -12 46 -28 60 -35 l25 -13 -19 22 c-11 12 -54 38 -95 59 -63 31 -87 37 -150 40 -52 1 -87 -3 -110 -13z" fill="#33505e"/>
<path d="M12731 5993 c-36 -75 -85 -143 -154 -215 -66 -70 -69 -80 -15 -52 73 38 175 168 198 253 16 62 -1 71 -29 14z" fill="#33505e"/>
<path d="M13031 5955 c-13 -97 -44 -202 -71 -247 l-18 -30 -28 43 c-47 74 -92 165 -110 223 -22 69 -39 73 -31 8 8 -66 42 -152 84 -213 27 -39 31 -50 17 -44 -71 28 -74 5 -4 -27 46 -21 48 -24 33 -40 -9 -10 -26 -18 -37 -19 -20 0 -20 -1 -2 -8 31 -12 64 -1 92 32 52 62 95 173 109 286 l7 53 42 -78 c24 -44 52 -94 63 -111 25 -41 93 -116 100 -110 12 13 -201 367 -221 367 -9 0 -17 -29 -25 -85z" fill="#33505e"/>
<path d="M13550 5775 c0 -30 -33 -100 -63 -132 -18 -21 -19 -23 -3 -29 15 -6 11 -13 -25 -50 -30 -31 -38 -44 -26 -44 24 0 84 56 96 90 10 29 7 35 -14 30 -5 -1 -1 8 10 20 11 12 25 34 31 48 l11 27 17 -32 c16 -32 62 -71 71 -61 3 3 -9 24 -25 47 -17 23 -38 57 -47 76 -20 41 -33 45 -33 10z" fill="#33505e"/>
<path d="M12720 5703 c0 -44 36 -143 52 -143 6 0 7 10 4 23 -4 12 -14 49 -22 82 -20 76 -34 92 -34 38z" fill="#33505e"/>
<path d="M13743 5677 c-2 -4 3 -9 11 -12 53 -17 53 -15 16 -47 -55 -46 -61 -48 -104 -27 -50 24 -53 24 -31 -1 10 -11 24 -20 32 -20 21 0 15 -18 -12 -36 -14 -9 -24 -18 -22 -20 19 -19 217 116 217 147 0 13 -11 18 -51 21 -28 1 -53 0 -56 -5z" fill="#33505e"/>
<path d="M12330 5627 c0 -26 27 -87 56 -124 23 -31 24 -34 9 -62 -8 -17 -12 -31 -7 -33 4 -2 56 45 115 104 80 80 104 110 93 114 -10 4 -30 -6 -51 -25 -43 -37 -64 -41 -41 -6 26 39 19 41 -19 5 -21 -20 -35 -44 -35 -58 0 -13 -5 -32 -10 -43 -11 -20 -30 -26 -30 -8 0 13 -58 131 -71 144 -6 5 -9 3 -9 -8z" fill="#33505e"/>
<path d="M12921 5548 c-63 -29 -79 -50 -22 -30 17 6 31 8 31 4 0 -12 -93 -92 -136 -117 -24 -14 -54 -25 -68 -25 -35 0 -33 -16 4 -35 33 -17 115 -21 105 -5 -3 6 -15 10 -26 10 -28 0 -23 13 13 34 66 39 176 162 166 185 -2 4 -32 -5 -67 -21z" fill="#33505e"/>
<path d="M13080 5544 c0 -8 -13 -46 -30 -85 -30 -70 -26 -91 7 -41 39 57 59 142 33 142 -5 0 -10 -7 -10 -16z" fill="#33505e"/>
<path d="M13362 5513 c6 -21 14 -46 19 -55 13 -24 1 -23 -65 6 -65 29 -136 38 -136 17 0 -5 17 -11 39 -15 36 -5 39 -9 59 -64 24 -66 80 -132 111 -132 28 0 26 9 -7 42 -15 15 -40 50 -56 78 l-28 52 33 -17 c74 -39 110 -35 93 10 -4 9 0 15 9 15 17 0 77 68 77 87 0 23 -18 14 -58 -32 l-39 -45 -24 45 c-29 55 -41 58 -27 8z" fill="#33505e"/>
<path d="M13891 5500 c-5 -17 -19 -44 -31 -59 -11 -16 -20 -34 -20 -40 0 -16 33 -14 56 4 17 13 17 14 2 15 -16 0 -16 3 2 33 21 34 26 62 11 71 -5 3 -14 -8 -20 -24z" fill="#33505e"/>
<path d="M13735 5450 c21 -22 40 -38 41 -37 10 10 -12 46 -36 60 -45 27 -47 20 -5 -23z" fill="#33505e"/>
<path d="M12392 5278 c-78 -46 -103 -70 -88 -85 3 -3 23 5 43 19 38 25 51 30 106 42 20 5 27 3 27 -8 0 -19 -146 -146 -167 -146 -9 0 -14 -3 -10 -6 14 -15 73 12 128 58 82 68 96 111 42 124 -23 6 -23 7 -7 25 30 34 11 27 -74 -23z" fill="#33505e"/>
<path d="M12840 5264 c-45 -39 -108 -81 -159 -105 -46 -22 -81 -42 -79 -44 8 -9 112 26 158 53 67 38 126 89 149 128 11 19 17 34 13 33 -4 0 -41 -30 -82 -65z" fill="#33505e"/>
<path d="M16968 6662 c139 -101 207 -179 242 -278 52 -148 0 -433 -113 -627 -41 -69 -112 -135 -154 -143 -62 -12 -151 12 -265 71 -60 30 -108 53 -108 50 0 -3 16 -20 36 -38 107 -96 261 -152 350 -127 86 24 199 174 263 350 68 185 73 410 11 529 -50 99 -162 197 -254 222 l-31 8 23 -17z" fill="#33505e"/>
<path d="M16596 6379 c-8 -40 -8 -202 0 -223 8 -21 20 -20 29 2 10 27 18 177 11 216 -8 44 -31 47 -40 5z" fill="#33505e"/>
<path d="M16897 6403 c-11 -18 -18 -368 -8 -383 30 -44 51 74 47 268 -1 69 -6 96 -18 108 -8 9 -18 12 -21 7z" fill="#33505e"/>
<path d="M14586 6325 c4 -16 11 -40 15 -52 4 -12 11 -56 15 -98 8 -86 24 -83 24 5 0 68 -14 121 -40 152 l-20 23 6 -30z" fill="#33505e"/>
<path d="M14100 6235 c0 -19 75 -145 78 -131 4 17 -43 110 -65 127 -7 6 -13 8 -13 4z" fill="#33505e"/>
<path d="M14338 6193 c-20 -21 -41 -49 -48 -61 -6 -13 -14 -22 -17 -19 -2 3 5 24 17 47 12 23 19 44 17 47 -11 10 -57 -86 -57 -118 0 -35 -26 -163 -55 -275 -17 -65 -20 -108 -6 -100 12 8 38 106 56 216 19 111 33 160 46 160 6 0 7 -4 4 -10 -13 -22 7 -8 52 36 61 58 88 72 156 80 49 6 57 4 69 -15 19 -31 31 -25 14 8 -18 34 -34 41 -87 41 -47 0 -104 -22 -138 -53 l-24 -22 22 38 c12 20 21 37 19 37 -2 0 -20 -17 -40 -37z" fill="#33505e"/>
<path d="M14758 6043 c-23 -27 -48 -79 -48 -103 0 -11 5 -29 12 -40 10 -15 9 -23 -7 -40 -10 -11 -15 -23 -11 -28 9 -8 46 34 46 54 0 7 -4 16 -10 19 -5 3 -10 12 -10 20 0 11 6 11 29 -3 32 -18 58 -7 28 12 -10 6 -26 17 -35 24 -15 10 -13 11 13 6 l30 -6 -23 19 -24 19 27 32 c18 22 22 32 12 32 -7 0 -21 -8 -29 -17z" fill="#33505e"/>
<path d="M14069 6003 c-2 -75 3 -128 12 -137 14 -15 19 -3 21 45 2 97 -2 129 -17 129 -11 0 -15 -11 -16 -37z" fill="#33505e"/>
<path d="M14376 5993 c-9 -56 -7 -146 4 -163 20 -32 31 6 28 100 -3 98 -20 132 -32 63z" fill="#33505e"/>
<path d="M18178 5915 c78 -40 87 -59 86 -185 -1 -96 -57 -527 -115 -885 -23 -144 -23 -155 -4 -155 25 0 35 53 121 650 36 243 41 488 11 533 -25 38 -59 58 -109 63 l-43 5 53 -26z" fill="#33505e"/>
<path d="M14491 5788 c-118 -128 -255 -268 -262 -268 -4 0 -12 12 -17 28 l-10 27 -7 -28 c-15 -55 33 -75 82 -33 l28 25 22 -21 c27 -25 44 -16 20 10 -10 10 -17 21 -17 23 0 2 27 33 61 68 56 59 62 63 85 52 34 -15 69 -14 104 4 56 29 68 99 25 139 -14 13 -25 28 -25 35 0 25 -26 7 -89 -61z m87 0 c33 -33 -4 -88 -59 -88 -35 0 -42 10 -23 31 13 14 21 16 41 8 35 -13 43 -2 15 19 -18 14 -20 20 -10 30 15 15 21 15 36 0z" fill="#33505e"/>
<path d="M17518 5687 c-126 -110 -372 -197 -554 -197 -115 0 -218 31 -331 102 -47 28 -42 4 7 -43 140 -133 404 -148 678 -38 146 58 223 115 238 175 9 36 3 36 -38 1z" fill="#33505e"/>
<path d="M17739 5573 c-30 -27 -78 -64 -107 -83 -53 -36 -63 -50 -37 -50 45 0 175 91 200 140 29 56 14 54 -56 -7z" fill="#33505e"/>
<path d="M14262 5232 c3 -33 11 -68 16 -79 10 -17 11 -17 18 1 10 27 -8 129 -25 134 -11 4 -13 -7 -9 -56z" fill="#33505e"/>
<path d="M17968 4543 c28 -44 57 -97 65 -116 8 -19 20 -38 26 -41 30 -19 -8 71 -64 150 -67 93 -84 98 -27 7z" fill="#33505e"/>
<path d="M18020 4575 c0 -4 15 -25 34 -48 18 -23 46 -64 62 -92 21 -37 30 -45 32 -31 4 21 -68 133 -104 159 -13 10 -24 15 -24 12z" fill="#33505e"/>
<path d="M17153 3432 c-51 -102 -92 -187 -90 -188 1 -1 12 2 24 7 40 15 191 348 164 363 -3 2 -48 -80 -98 -182z" fill="#33505e"/>
<path d="M16795 3464 c-154 -57 -566 -114 -725 -100 -101 10 -82 -10 31 -30 142 -26 417 -6 589 43 69 20 139 55 164 82 19 21 19 21 0 20 -10 0 -37 -7 -59 -15z" fill="#33505e"/>
<path d="M4685 5873 c-4 -21 -8 -49 -11 -63 -2 -14 2 -34 9 -44 10 -14 12 -30 6 -55 -9 -42 -14 -199 -6 -207 7 -8 21 102 13 114 -3 5 -1 37 5 71 8 45 8 65 0 75 -8 9 -10 36 -5 80 7 70 -1 91 -11 29z" fill="#33505e"/>
<path d="M4802 5868 c3 -42 4 -43 46 -49 42 -5 42 -5 42 27 0 54 -8 64 -52 64 l-39 0 3 -42z m54 24 c7 -4 14 -18 15 -32 3 -21 -1 -26 -22 -28 -24 -3 -27 1 -31 32 -4 37 10 47 38 28z" fill="#33505e"/>
<path d="M4827 5768 c-3 -18 -9 -83 -13 -145 -7 -119 -1 -174 18 -155 14 14 23 332 9 332 -5 0 -11 -15 -14 -32z" fill="#33505e"/>
<path d="M5250 5790 c-8 -14 -7 -26 1 -41 8 -17 8 -31 0 -61 -10 -32 -9 -44 5 -73 15 -32 15 -38 0 -68 -12 -26 -13 -42 -5 -71 12 -45 30 -39 22 8 -3 19 0 50 7 70 10 30 9 41 -2 59 -9 14 -14 52 -13 110 0 48 -1 87 -2 87 -1 0 -7 -9 -13 -20z" fill="#33505e"/>
<path d="M5410 5794 c0 -9 9 -18 20 -21 24 -6 24 -7 4 -38 -10 -15 -12 -25 -5 -25 6 0 17 14 26 30 15 29 15 31 -9 42 -14 6 -23 15 -20 19 3 5 0 9 -5 9 -6 0 -11 -7 -11 -16z" fill="#33505e"/>
<path d="M5835 5750 c6 -86 0 -84 -10 3 -4 32 -9 56 -12 53 -7 -7 -3 -165 6 -260 6 -69 25 -99 34 -54 3 16 5 13 6 -11 0 -21 5 -31 10 -25 11 12 -16 345 -30 359 -6 6 -8 -16 -4 -65z" fill="#33505e"/>
<path d="M5118 5613 c5 -123 21 -194 22 -92 0 80 -12 209 -20 209 -3 0 -4 -53 -2 -117z" fill="#33505e"/>
<path d="M5700 5598 c0 -54 4 -100 10 -103 11 -7 12 2 10 100 -2 112 -19 114 -20 3z" fill="#33505e"/>
<path d="M5430 5588 c0 -6 7 -19 16 -29 12 -13 13 -22 5 -38 -13 -24 -14 -51 -2 -51 16 0 23 70 9 101 -13 29 -28 39 -28 17z" fill="#33505e"/>
<path d="M5620 5290 c13 -8 199 -3 209 6 2 2 -47 4 -110 4 -74 0 -109 -4 -99 -10z" fill="#33505e"/>
<path d="M5028 5283 c23 -2 59 -2 80 0 20 2 1 4 -43 4 -44 0 -61 -2 -37 -4z" fill="#33505e"/>
<path d="M7300 5270 c14 -4 66 -8 115 -8 87 1 88 1 30 8 -84 11 -178 11 -145 0z" fill="#33505e"/>
<path d="M6261 5255 c10 -10 149 -14 149 -5 0 6 -33 10 -77 10 -42 0 -74 -2 -72 -5z" fill="#33505e"/>
<path d="M6843 5228 c-2 -5 22 -9 54 -9 32 -1 70 -3 84 -4 15 -2 49 0 75 5 59 9 48 11 -97 13 -61 1 -113 -1 -116 -5z" fill="#33505e"/>
<path d="M5445 5220 c11 -5 54 -8 95 -8 66 0 70 1 35 9 -55 11 -157 10 -130 -1z" fill="#33505e"/>
<path d="M7795 5220 c-4 -6 16 -10 52 -10 41 0 54 3 43 10 -20 13 -87 13 -95 0z" fill="#33505e"/>
<path d="M4860 5199 c-16 -4 8 -7 64 -8 49 -1 87 1 85 3 -9 8 -126 12 -149 5z" fill="#33505e"/>
<path d="M5954 5151 c-13 -13 17 -21 84 -20 87 0 145 16 77 20 -68 4 -156 4 -161 0z" fill="#33505e"/>
<path d="M6474 5149 c-16 -4 14 -7 66 -6 94 0 98 3 9 9 -25 2 -59 0 -75 -3z" fill="#33505e"/>
<path d="M7110 5138 c0 -4 38 -8 85 -8 53 0 85 4 85 10 0 7 -31 10 -85 9 -47 -2 -85 -6 -85 -11z" fill="#33505e"/>
<path d="M4458 5133 c17 -2 47 -2 65 0 17 2 3 4 -33 4 -36 0 -50 -2 -32 -4z" fill="#33505e"/>
<path d="M4980 5130 c-23 -5 2 -7 75 -8 69 0 101 3 85 8 -31 10 -113 10 -160 0z" fill="#33505e"/>
<path d="M7610 5110 c20 -13 130 -13 130 0 0 6 -31 10 -72 10 -51 0 -68 -3 -58 -10z" fill="#33505e"/>
<path d="M12328 4755 c-37 -25 -82 -102 -76 -130 2 -10 19 8 46 49 24 36 47 66 52 66 5 0 14 9 20 20 14 27 2 25 -42 -5z" fill="#33505e"/>
<path d="M12393 4698 c-28 -32 -57 -78 -51 -83 4 -4 50 56 72 93 11 19 2 14 -21 -10z" fill="#33505e"/>
<path d="M13595 4463 c-112 -37 -110 -61 2 -28 44 13 84 40 72 48 -2 1 -35 -8 -74 -20z" fill="#33505e"/>
<path d="M13431 4018 c-1 -19 4 -28 14 -28 8 0 15 5 15 10 0 6 -4 10 -9 10 -5 0 -12 8 -14 18 -3 10 -5 6 -6 -10z" fill="#33505e"/>
<path d="M5710 4874 c-210 -12 -399 -27 -500 -40 -138 -18 -300 -54 -300 -66 0 -5 12 -7 28 -4 15 3 52 8 82 11 30 4 84 10 120 15 36 5 121 12 190 15 69 4 139 9 155 11 62 9 767 12 940 4 361 -16 452 -21 580 -31 145 -10 432 -46 449 -56 7 -4 8 -2 1 5 -44 45 -411 103 -750 117 -71 3 -149 8 -172 10 -56 6 -742 14 -823 9z" fill="#33505e"/>
<path d="M14053 3605 c69 -63 197 -125 272 -131 l60 -5 -95 39 c-111 45 -162 70 -223 112 -64 43 -70 36 -14 -15z" fill="#33505e"/>
<path d="M11854 3526 c-3 -14 -4 -33 -2 -43 2 -11 8 -2 15 25 6 23 7 42 2 42 -5 0 -11 -11 -15 -24z" fill="#33505e"/>
<path d="M11808 3512 c-3 -9 -2 -26 2 -37 6 -16 8 -12 12 18 4 38 -6 52 -14 19z" fill="#33505e"/>
<path d="M11784 3222 c4 -7 13 -12 20 -12 7 0 40 -11 74 -24 74 -29 84 -18 12 13 -64 27 -116 39 -106 23z" fill="#33505e"/>
<path d="M11615 3181 c-79 -20 -133 -74 -96 -96 20 -12 129 -7 156 7 18 11 18 11 -5 20 -14 5 -44 7 -67 4 -24 -3 -43 -4 -43 -1 0 10 61 35 87 35 15 0 35 4 43 10 11 7 9 11 -13 19 -16 6 -29 11 -30 10 -1 -1 -15 -4 -32 -8z" fill="#33505e"/>
<path d="M11870 3016 c0 -28 -7 -52 -20 -68 -20 -27 -18 -38 10 -38 18 0 50 49 50 79 0 25 -20 71 -32 71 -4 0 -8 -20 -8 -44z" fill="#33505e"/>
<path d="M13121 2896 c3 -3 55 -15 115 -27 150 -28 400 -32 373 -5 -11 12 -499 44 -488 32z" fill="#33505e"/>
<path d="M11785 2832 c-10 -17 -34 -39 -52 -49 -36 -19 -38 -36 -5 -41 47 -7 106 65 84 104 -8 15 -12 13 -27 -14z" fill="#33505e"/>
<path d="M15561 3201 c-17 -16 -31 -32 -31 -36 0 -5 38 -5 85 -2 l84 6 -34 -45 c-19 -25 -35 -55 -35 -66 0 -18 5 -20 40 -15 l40 5 -20 -33 c-20 -33 -26 -65 -12 -65 12 0 65 117 58 129 -5 8 -16 6 -37 -5 -51 -26 -50 -12 5 78 18 29 -3 37 -72 26 -35 -5 -67 -7 -70 -3 -3 3 7 17 23 30 17 13 25 24 19 25 -7 0 -26 -13 -43 -29z" fill="#33505e"/>
<path d="M14773 3058 c-53 -80 -99 -174 -129 -262 -37 -108 -28 -108 26 0 28 54 48 88 45 74 -28 -121 -30 -200 -5 -200 5 0 12 17 15 38 7 45 28 138 59 257 24 93 37 155 33 155 -1 0 -21 -28 -44 -62z" fill="#33505e"/>
<path d="M15145 2615 c22 -20 72 -54 110 -75 55 -31 81 -40 119 -40 59 0 55 5 -27 39 -34 14 -91 42 -127 62 -36 21 -76 40 -90 43 -22 6 -20 2 15 -29z" fill="#33505e"/>
<path d="M5766 3098 c13 -41 12 -62 -8 -100 -21 -44 -9 -50 21 -12 23 29 27 68 11 108 -12 32 -34 35 -24 4z" fill="#33505e"/>
<path d="M5740 3051 c0 -17 5 -31 10 -31 6 0 10 11 10 24 0 14 -4 28 -10 31 -6 4 -10 -7 -10 -24z" fill="#33505e"/>
<path d="M5902 3098 c-9 -4 10 -7 43 -7 33 -1 98 -4 145 -7 57 -3 80 -2 70 4 -18 12 -233 20 -258 10z" fill="#33505e"/>
<path d="M6370 3102 c0 -11 78 -13 85 -1 4 5 -13 9 -39 9 -25 0 -46 -4 -46 -8z" fill="#33505e"/>
<path d="M6055 3040 c3 -6 52 -10 111 -10 63 0 104 4 104 10 0 6 -44 10 -111 10 -71 0 -108 -4 -104 -10z" fill="#33505e"/>
<path d="M6298 2993 c18 -2 45 -2 60 0 15 2 0 4 -33 4 -33 0 -45 -2 -27 -4z" fill="#33505e"/>
<path d="M13596 1939 c9 -15 203 -109 226 -109 21 0 24 30 6 49 -9 8 0 7 24 -3 35 -15 108 -23 96 -10 -3 3 -31 12 -62 20 -32 8 -73 24 -92 34 -54 31 -62 24 -19 -20 46 -47 38 -49 -41 -14 -124 56 -145 63 -138 53z" fill="#33505e"/>
<path d="M5702 2843 c-6 -10 -6 -27 -1 -40 14 -37 28 -27 22 15 -7 46 -9 48 -21 25z" fill="#33505e"/>
<path d="M6163 2883 c9 -2 23 -2 30 0 6 3 -1 5 -18 5 -16 0 -22 -2 -12 -5z" fill="#33505e"/>
<path d="M6394 2868 c-3 -4 7 -8 23 -8 15 0 39 -3 52 -7 16 -4 22 -2 18 4 -8 13 -87 22 -93 11z" fill="#33505e"/>
<path d="M6270 2790 c20 -13 63 -13 55 0 -3 6 -21 10 -38 10 -24 0 -28 -3 -17 -10z" fill="#33505e"/>
<path d="M5853 2763 c9 -2 23 -2 30 0 6 3 -1 5 -18 5 -16 0 -22 -2 -12 -5z" fill="#33505e"/>
<path d="M6053 2753 c20 -2 54 -2 75 0 20 2 3 4 -38 4 -41 0 -58 -2 -37 -4z" fill="#33505e"/>
<path d="M6388 2733 c18 -2 45 -2 60 0 15 2 0 4 -33 4 -33 0 -45 -2 -27 -4z" fill="#33505e"/>
<path d="M10072 1745 c4 -101 22 -119 26 -25 3 71 -3 110 -19 110 -6 0 -9 -32 -7 -85z" fill="#33505e"/>
<path d="M10135 1806 c-14 -10 -17 -21 -12 -51 7 -43 65 -145 83 -145 6 0 28 21 48 47 54 69 60 113 20 139 -17 12 -23 12 -40 -1 -18 -15 -18 -15 8 -9 36 8 45 -14 24 -53 -15 -27 -61 -83 -69 -83 -5 0 -43 80 -51 105 -3 11 -2 26 3 34 8 12 13 12 35 -3 30 -19 37 -2 9 20 -23 17 -35 17 -58 0z" fill="#33505e"/>
<path d="M10077 1610 c-18 -64 11 -130 57 -130 48 0 89 59 67 97 -7 14 -12 11 -25 -20 -10 -25 -21 -37 -34 -37 -27 0 -38 17 -49 70 -8 40 -10 42 -16 20z" fill="#33505e"/>
<path d="M4460 1130 c0 -22 11 -35 60 -69 81 -57 545 -285 560 -276 4 2 5 18 2 34 -6 41 -33 58 -373 234 -91 48 -185 90 -208 96 -40 9 -41 8 -41 -19z m53 -4 c10 -8 14 -17 9 -20 -15 -9 -42 4 -42 20 0 17 10 17 33 0z m57 -36 c8 -5 12 -12 9 -15 -8 -8 -39 5 -39 16 0 11 11 11 30 -1z m75 -50 c4 -6 -5 -5 -19 2 -14 6 -26 15 -26 20 0 10 36 -7 45 -22z m60 -30 c3 -6 -1 -7 -9 -4 -18 7 -21 14 -7 14 6 0 13 -4 16 -10z m352 -176 c-3 -3 -12 -4 -19 -1 -8 3 -5 6 6 6 11 1 17 -2 13 -5z" fill="#33505e"/>
<path d="M6350 863 c0 -4 14 -22 32 -40 l32 -33 -29 -30 c-34 -36 -22 -40 20 -6 l30 24 28 -24 c33 -28 56 -32 36 -6 -8 9 -20 21 -26 25 -19 12 -16 26 12 59 33 39 23 50 -13 15 -34 -33 -35 -33 -76 -2 -34 26 -46 30 -46 18z" fill="#33505e"/>
<path d="M6453 5924 c-9 -23 13 -40 32 -24 8 7 15 19 15 26 0 19 -39 18 -47 -2z" fill="#33505e"/>
<path d="M6502 5867 c-8 -9 -6 -16 8 -24 14 -10 21 -9 30 2 9 11 7 16 -8 24 -15 8 -23 7 -30 -2z" fill="#33505e"/>
<path d="M6410 5850 c0 -22 1 -23 24 -14 23 9 20 34 -4 34 -13 0 -20 -7 -20 -20z" fill="#33505e"/>
<path d="M6473 5823 c-24 -9 -13 -24 15 -21 15 2 26 8 25 13 -2 12 -23 16 -40 8z" fill="#33505e"/>
<path d="M18822 3490 c-5 -14 -60 -136 -121 -272 -61 -137 -114 -263 -118 -280 -9 -51 8 -24 57 87 24 55 61 138 83 185 63 138 119 280 114 293 -3 7 -9 1 -15 -13z" fill="#33505e"/>
<path d="M16630 2906 c0 -2 43 -28 96 -57 177 -95 304 -209 410 -367 64 -95 83 -96 33 -2 -56 105 -175 232 -292 314 -64 44 -247 127 -247 112z" fill="#33505e"/>
<path d="M18105 1956 c-33 -10 -258 -111 -274 -123 -2 -2 -2 -5 1 -8 3 -3 31 6 64 20 32 14 68 30 79 34 84 37 175 81 175 86 0 3 -1 5 -2 4 -2 0 -21 -6 -43 -13z" fill="#33505e"/>
<path d="M17186 1733 c-3 -4 -6 -30 -6 -59 l0 -53 48 -6 c26 -3 57 -8 70 -11 l22 -4 -2 -408 c-3 -489 1 -973 9 -1099 l6 -93 27 0 27 0 -4 439 -5 439 128 -27 129 -26 3 -412 2 -413 36 0 36 0 -5 409 -6 409 32 -9 c18 -5 33 -9 34 -9 2 0 3 -180 3 -400 l0 -400 35 0 34 0 3 127 3 128 160 98 c88 54 213 134 277 177 l117 79 108 -20 c147 -26 330 -64 487 -101 221 -51 206 -50 206 -18 0 31 11 27 -220 79 -263 58 -326 71 -424 86 -94 15 -144 31 -133 41 3 3 67 -6 143 -20 178 -33 396 -73 504 -92 47 -8 95 -17 108 -21 19 -4 22 -1 22 26 0 24 -5 32 -22 36 -53 11 -582 108 -1043 191 -104 18 -246 44 -315 56 l-124 23 -3 298 c-2 277 -1 298 15 293 23 -7 188 -40 337 -66 66 -11 156 -27 200 -35 44 -8 229 -35 410 -60 182 -25 346 -48 365 -51 98 -14 166 -24 173 -24 4 0 7 13 7 29 0 32 -2 32 -100 46 -25 4 -58 9 -75 11 -16 3 -61 9 -100 14 -133 16 -641 91 -880 130 -132 22 -266 42 -297 46 -48 6 -58 10 -58 26 0 16 5 19 28 14 25 -5 266 -40 497 -71 55 -8 204 -30 330 -49 298 -46 637 -96 647 -96 4 0 8 11 8 25 0 14 -2 25 -4 25 -8 0 -551 81 -671 100 -388 62 -1130 160 -1209 160 -69 0 -96 11 -96 37 0 23 3 25 35 19 74 -14 327 -46 530 -66 246 -25 729 -77 830 -89 39 -5 131 -16 205 -25 74 -9 186 -23 248 -31 140 -18 132 -19 132 4 0 20 -14 25 -95 36 -27 4 -61 9 -75 11 -314 51 -1209 146 -1640 175 -91 6 -172 15 -181 19 -9 5 -20 6 -23 3z m437 -172 c16 -1 17 -24 17 -336 l0 -335 -24 0 c-13 0 -60 7 -103 15 -43 8 -90 15 -105 15 -25 0 -28 3 -29 38 0 20 -2 156 -5 302 -2 146 -6 281 -9 301 l-5 35 123 -17 c67 -10 130 -18 140 -18z m322 -791 c59 -9 335 -61 401 -75 33 -7 22 -41 -27 -80 -24 -19 -48 -35 -52 -35 -5 0 -32 -15 -60 -34 -108 -70 -344 -216 -360 -222 -16 -6 -17 14 -17 231 l0 237 23 -5 c12 -3 54 -11 92 -17z" fill="#33505e"/>
<path d="M9930 1285 c-111 -69 -146 -93 -250 -171 -112 -84 -130 -103 -126 -129 3 -22 24 -28 319 -90 l169 -35 43 19 c25 11 65 34 90 51 l47 32 23 -22 c27 -26 85 -130 85 -155 0 -9 7 -16 18 -14 9 1 20 0 25 -1 4 -1 10 -3 15 -4 4 -1 13 -5 21 -10 10 -7 43 21 125 105 61 63 135 141 163 173 l53 59 -18 30 c-27 48 -131 147 -176 168 -48 22 -111 24 -155 6 -27 -11 -46 -11 -129 4 -53 10 -135 21 -182 24 l-85 6 -75 -46z m257 -11 l121 -17 -61 -32 c-61 -32 -63 -32 -137 -23 -47 7 -79 16 -88 27 -12 15 -13 14 -10 -3 2 -13 17 -22 53 -31 27 -7 54 -11 58 -8 4 3 15 2 25 -2 12 -5 6 -12 -28 -31 l-45 -26 -87 17 -86 17 -65 -46 c-36 -25 -70 -53 -77 -61 -10 -13 -9 -15 11 -15 13 0 59 -8 101 -17 64 -13 78 -20 78 -35 0 -11 5 -28 11 -40 9 -17 8 -19 -8 -14 -56 16 -157 39 -225 51 -43 8 -85 18 -94 23 -12 6 20 33 138 117 84 60 171 121 192 137 47 33 60 34 223 12z m350 -16 c47 -22 166 -142 161 -163 -3 -14 -277 -300 -282 -294 -1 2 -19 31 -39 64 -20 33 -57 81 -84 107 -53 52 -152 108 -189 108 -13 0 -24 3 -24 8 0 4 62 40 138 80 75 40 157 84 181 97 48 27 66 26 138 -7z m-567 -129 c74 -16 76 -18 49 -36 -13 -9 -36 -27 -50 -40 l-27 -25 -77 17 c-42 10 -74 19 -72 21 20 21 105 74 117 74 8 0 35 -5 60 -11z m172 -105 c27 -14 38 -34 18 -34 -5 0 -32 -14 -60 -31 -59 -36 -95 -34 -110 7 -27 70 63 104 152 58z m18 -58 c0 -6 -103 -67 -107 -63 -2 3 20 19 49 36 55 32 58 33 58 27z m195 -136 c3 -5 1 -10 -4 -10 -6 0 -11 5 -11 10 0 6 2 10 4 10 3 0 8 -4 11 -10z" fill="#33505e"/>
<path d="M9980 1220 c-9 -6 -10 -10 -3 -10 6 0 15 5 18 10 8 12 4 12 -15 0z" fill="#33505e"/>
<path d="M10496 1242 c19 -17 114 -82 120 -82 13 0 -11 22 -60 55 -48 31 -85 48 -60 27z" fill="#33505e"/>
<path d="M10374 1205 c-16 -13 -16 -14 -1 -9 13 5 16 2 11 -11 -9 -23 14 -36 49 -29 22 5 27 2 27 -15 0 -14 8 -23 25 -27 17 -4 27 -15 31 -33 10 -47 17 -58 21 -34 6 32 -24 83 -48 83 -11 0 -19 6 -18 13 4 33 -1 37 -40 31 -37 -6 -38 -5 -34 20 6 30 4 31 -23 11z" fill="#33505e"/>
<path d="M10200 1129 l-25 -20 32 15 c38 19 51 20 35 4 -7 -7 -12 -21 -12 -31 0 -15 5 -18 25 -15 17 4 25 1 25 -8 0 -8 9 -14 20 -14 11 0 20 -4 20 -9 0 -5 9 -12 19 -16 10 -3 21 -15 24 -25 3 -14 14 -20 32 -20 24 0 26 -3 20 -30 -4 -19 -3 -30 4 -30 6 0 11 11 11 25 0 14 1 28 2 33 1 4 -11 9 -28 12 -16 3 -29 11 -29 18 0 17 -45 51 -67 52 -11 0 -15 6 -11 20 5 18 3 19 -21 10 -37 -14 -38 -13 -26 9 23 45 -6 56 -50 20z" fill="#33505e"/>
<path d="M10625 1121 c-3 -5 -1 -12 5 -16 5 -3 10 1 10 9 0 18 -6 21 -15 7z" fill="#33505e"/>
<path d="M11213 1304 c-26 -11 -11 -62 51 -179 94 -179 195 -358 210 -374 9 -8 47 -15 105 -19 146 -8 152 12 57 186 -100 182 -124 223 -179 308 l-52 79 -90 2 c-50 1 -96 -1 -102 -3z m47 -44 c0 -13 10 -19 38 -22 20 -3 38 -1 40 4 2 4 15 5 29 1 22 -5 25 -3 20 11 -4 10 -3 15 3 11 8 -5 100 -162 100 -171 0 -2 -33 -4 -74 -4 l-73 0 -26 38 c-45 69 -88 162 -72 156 8 -4 15 -14 15 -24z m30 10 c0 -5 -4 -10 -10 -10 -5 0 -10 5 -10 10 0 6 5 10 10 10 6 0 10 -4 10 -10z m37 4 c-3 -3 -12 -4 -19 -1 -8 3 -5 6 6 6 11 1 17 -2 13 -5z m93 -210 c0 -2 -16 -4 -35 -4 -19 0 -35 4 -35 8 0 4 16 6 35 4 19 -2 35 -6 35 -8z m83 -1 c-7 -2 -21 -2 -30 0 -10 3 -4 5 12 5 17 0 24 -2 18 -5z m35 -50 c12 -16 10 -18 -17 -21 -40 -4 -39 -17 1 -28 35 -10 49 -38 24 -47 -8 -3 -27 -2 -43 2 -22 6 -28 13 -28 34 1 37 -19 28 -23 -10 -2 -23 3 -35 20 -47 28 -20 77 -21 105 -1 20 14 23 13 38 -7 15 -22 14 -23 -10 -31 -35 -12 -26 -32 15 -33 19 0 35 -5 38 -12 5 -15 -135 -17 -158 -2 -11 7 -7 10 17 10 29 0 52 15 41 26 -6 6 -50 8 -67 3 -10 -3 -33 28 -68 91 -29 52 -53 97 -53 100 0 3 35 3 77 -1 57 -6 81 -13 91 -26z" fill="#33505e"/>
<path d="M3715 1183 c-188 -39 -508 -130 -590 -168 -16 -7 -59 -21 -95 -30 -72 -18 -383 -123 -890 -300 -184 -65 -344 -117 -355 -117 -11 0 -144 41 -295 92 -296 99 -433 143 -690 222 -228 69 -778 228 -791 228 -22 0 -4 -44 21 -51 14 -4 140 -41 280 -84 227 -68 355 -107 795 -245 66 -20 206 -65 310 -100 105 -34 219 -72 255 -83 36 -11 68 -25 72 -31 4 -5 4 -124 2 -263 l-5 -253 35 0 35 0 -5 254 c-4 204 -3 256 8 262 7 5 110 41 228 80 118 40 328 111 465 159 413 144 831 280 1094 355 141 41 181 57 181 72 0 8 -30 9 -65 1z" fill="#33505e"/>
<path d="M18617 1123 c-4 -3 -4 -38 -1 -77 5 -52 4 -68 -5 -60 -6 5 -12 36 -12 67 -1 32 -5 60 -10 63 -17 10 -31 -40 -27 -99 4 -47 9 -64 27 -78 29 -23 46 -16 63 27 l14 35 19 -55 c18 -52 18 -57 2 -90 -21 -45 -54 -54 -104 -29 -49 23 -65 68 -51 138 15 78 15 80 -7 77 -35 -5 -75 -58 -75 -100 0 -89 33 -139 115 -178 73 -35 135 -32 178 6 47 41 61 96 40 157 -16 47 -73 113 -98 113 -8 0 -23 20 -34 45 -21 47 -23 49 -34 38z m-113 -128 c-7 -19 -14 -51 -14 -71 0 -49 -9 -39 -13 15 -3 31 2 50 15 67 26 33 30 30 12 -11z m205 1 c42 -43 57 -103 37 -150 -14 -35 -61 -74 -73 -62 -3 3 -1 6 5 6 20 0 52 63 52 101 0 26 -11 53 -34 88 -40 59 -34 66 13 17z" fill="#33505e"/>
<path d="M16621 190 c0 -30 4 -62 9 -70 12 -19 12 76 0 105 -6 14 -9 5 -9 -35z" fill="#33505e"/>
<path d="M16697 143 c-11 -10 -8 -61 3 -68 6 -4 10 10 10 34 0 42 -2 46 -13 34z" fill="#33505e"/>
</g>
</svg>