<svg xmlns="http://www.w3.org/2000/svg" version="1.0" width="357.000000pt" height="169.000000pt" viewBox="0 0 357.000000 169.000000" preserveAspectRatio="xMidYMid meet">
<metadata fill="#6096b4">
Created by potrace 1.16, written by Peter Selinger 2001-2019
</metadata>
<g transform="translate(0.000000,169.000000) scale(0.100000,-0.100000)" fill="#6096b4" stroke="none">
<path d="M3099 1636 c-14 -7 -51 -33 -81 -58 -89 -73 -145 -108 -171 -108 -24 0 -57 27 -57 48 0 21 -49 44 -98 45 -52 2 -102 -22 -102 -49 0 -22 29 -29 43 -9 9 11 23 16 41 13 30 -3 32 -6 60 -71 12 -29 27 -42 62 -57 82 -36 110 -27 245 74 113 85 125 88 195 42 61 -41 79 -71 88 -151 4 -36 3 -41 -3 -19 -12 47 -15 49 -87 74 -106 35 -169 13 -220 -78 -92 -162 -101 -172 -169 -172 -40 0 -88 37 -115 89 -44 86 -158 177 -213 169 -19 -3 -22 -9 -25 -60 -2 -55 -1 -58 22 -58 32 0 72 -34 115 -98 20 -30 43 -64 51 -77 61 -91 182 -119 296 -69 80 35 117 81 164 204 19 50 39 70 71 70 36 0 86 -50 95 -95 10 -55 24 -51 25 7 l0 53 23 -59 c27 -70 52 -93 98 -92 18 1 38 -6 45 -14 29 -35 40 45 18 130 -4 14 -12 57 -20 96 -13 71 -24 101 -50 132 -8 9 -25 33 -37 52 -34 53 -153 110 -227 110 -31 0 -68 -6 -82 -14z" fill="#6096b4"/>
<path d="M1953 1249 c-58 -37 -137 -182 -163 -301 -18 -78 -9 -162 19 -192 30 -32 91 -43 131 -23 21 11 30 12 30 4 1 -7 10 -23 20 -36 25 -29 51 -22 42 11 -5 21 -4 22 12 9 9 -8 18 -12 20 -10 2 2 6 40 9 84 6 85 19 131 41 149 8 6 17 20 20 31 5 17 -1 23 -29 33 -34 13 -69 10 -146 -9 -45 -11 -55 -39 -32 -86 14 -31 14 -35 -2 -53 -47 -52 -44 41 5 168 17 45 40 92 50 104 l19 23 1 -43 c0 -53 14 -82 40 -82 23 0 60 29 60 47 0 7 4 13 8 13 7 0 9 38 4 99 -2 25 -57 67 -97 75 -21 4 -39 0 -62 -15z" fill="#6096b4"/>
<path d="M2410 1231 c-50 -5 -120 -40 -120 -59 0 -4 -14 -16 -30 -27 -36 -24 -37 -36 -5 -72 14 -15 29 -34 35 -41 14 -15 44 -9 132 29 36 16 78 29 92 29 24 0 66 -30 66 -48 0 -4 20 -29 45 -55 34 -35 53 -47 75 -47 23 0 30 5 30 19 0 11 -9 22 -19 26 -23 7 -63 85 -63 121 0 13 -4 24 -8 24 -5 0 -6 8 -4 18 5 21 -23 55 -64 76 -32 16 -64 18 -162 7z" fill="#6096b4"/>
<path d="M1693 1218 c-11 -13 -43 -188 -43 -236 -1 -24 -3 -22 -22 18 -34 73 -70 144 -79 156 -11 14 -96 17 -104 4 -6 -9 -32 -174 -56 -353 -10 -72 -5 -157 8 -143 3 3 13 1 23 -4 20 -11 60 20 61 48 0 9 3 28 5 42 3 14 11 66 18 115 8 50 14 84 15 77 1 -6 26 -63 56 -126 49 -103 57 -114 86 -120 18 -3 38 -1 45 4 16 14 33 85 43 185 5 44 17 135 27 203 16 107 16 124 4 132 -9 6 -17 5 -21 -2 -4 -7 -9 -7 -13 1 -10 15 -41 14 -53 -1z" fill="#6096b4"/>
<path d="M1260 1170 c-14 -9 -49 -235 -57 -366 -5 -93 -4 -104 15 -124 42 -46 80 6 89 125 4 47 37 270 48 326 5 23 2 26 -39 36 -25 5 -50 7 -56 3z" fill="#6096b4"/>
<path d="M3213 1173 c-12 -2 -42 -22 -67 -44 -40 -35 -46 -46 -46 -80 0 -38 0 -38 33 -32 17 3 56 17 86 30 70 30 79 29 96 -11 11 -26 20 -33 40 -33 22 0 25 4 25 32 0 74 -94 152 -167 138z" fill="#6096b4"/>
<path d="M1076 1118 c-20 -16 -54 -61 -75 -100 -21 -38 -41 -66 -44 -61 -2 4 -12 33 -22 63 -10 30 -20 58 -24 62 -3 3 -27 9 -54 13 -46 7 -47 7 -61 -26 -17 -41 -64 -268 -73 -350 -3 -32 -9 -59 -12 -59 -3 0 -7 35 -8 78 -1 42 -5 106 -8 142 -15 176 -25 206 -73 215 -53 10 -68 -1 -95 -68 -177 -435 -165 -398 -144 -442 31 -65 85 -37 107 55 11 45 17 54 46 66 51 21 64 18 64 -15 0 -72 12 -119 33 -125 23 -6 64 34 70 69 3 18 4 18 14 -5 41 -97 100 -33 123 135 l13 89 29 -57 c16 -32 36 -61 44 -64 32 -12 62 16 98 89 l35 73 -6 -117 c-6 -124 0 -148 38 -148 35 0 56 34 63 101 4 35 9 80 11 99 23 185 34 294 29 301 -2 4 -12 8 -22 7 -9 0 -27 2 -38 5 -14 4 -34 -5 -58 -25z" fill="#6096b4"/>
<path d="M176 1030 c-83 -77 -164 -290 -151 -399 5 -38 14 -60 31 -76 31 -29 90 -39 126 -21 26 14 28 13 49 -21 21 -33 23 -34 35 -18 7 10 11 22 8 26 -8 13 10 11 24 -3 9 -9 12 -5 13 18 1 16 3 38 4 49 2 11 6 45 10 75 5 35 16 65 31 83 31 36 30 51 -1 65 -32 15 -57 15 -128 1 -66 -14 -80 -36 -53 -89 12 -25 13 -35 3 -51 -24 -38 -37 -31 -37 20 0 54 24 130 66 211 l28 55 12 -54 c16 -69 24 -77 63 -60 35 16 51 46 51 99 0 59 -15 87 -59 110 -57 28 -76 25 -125 -20z" fill="#6096b4"/>
<path d="M2430 709 c-114 -15 -102 1 -138 -181 -18 -90 -32 -188 -32 -218 0 -48 4 -59 32 -89 30 -32 34 -33 85 -28 54 6 116 40 91 50 -8 3 -6 6 5 6 12 1 17 9 17 27 0 22 -4 26 -24 22 -18 -4 -23 -1 -19 10 5 11 1 13 -15 8 -12 -3 -31 -9 -42 -12 -16 -4 -20 -1 -20 18 0 53 10 66 61 78 56 14 79 39 79 87 l0 33 -54 -4 -54 -4 8 33 c11 49 15 52 72 59 60 8 84 19 74 34 -3 6 1 12 10 14 24 5 28 58 5 58 -10 0 -31 2 -47 4 -16 2 -58 0 -94 -5z" fill="#6096b4"/>
<path d="M2037 648 c-39 -41 -116 -186 -118 -224 -1 -11 -5 8 -9 42 -8 76 -30 106 -100 141 -45 23 -68 28 -127 28 -40 0 -77 -5 -83 -11 -19 -19 -30 -85 -17 -105 8 -14 6 -51 -12 -161 -13 -79 -28 -155 -32 -170 -5 -19 -3 -31 7 -39 8 -6 14 -17 14 -25 0 -23 18 -25 68 -6 95 36 192 119 243 207 l30 50 -7 -50 c-8 -65 10 -128 43 -154 27 -22 107 -29 118 -11 9 15 35 12 35 -3 0 -21 42 -55 47 -39 3 6 9 10 14 7 5 -4 6 2 2 11 -5 13 -3 16 10 11 13 -5 17 -1 19 16 8 117 21 182 38 197 10 9 21 27 25 41 9 36 -37 51 -113 38 -105 -18 -120 -35 -88 -98 13 -25 13 -31 0 -50 -27 -38 -37 -25 -32 42 6 63 58 206 84 228 10 8 14 2 20 -28 14 -79 41 -93 88 -47 21 22 26 36 26 76 0 50 -24 113 -39 103 -5 -2 -14 2 -21 10 -7 9 -29 15 -53 15 -34 0 -46 -6 -80 -42z m-274 -146 c49 -54 36 -112 -42 -191 -62 -63 -74 -57 -48 27 8 26 15 58 15 72 1 13 7 44 14 67 14 47 34 55 61 25z" fill="#6096b4"/>
<path d="M1328 596 c-23 -17 -65 -106 -88 -187 -21 -78 -24 -137 -11 -206 5 -23 5 -41 2 -39 -56 28 -87 37 -107 32 -22 -6 -24 -4 -16 11 5 10 12 36 15 58 3 22 15 92 26 155 25 140 25 133 3 128 -11 -3 -23 2 -30 13 -12 18 -35 20 -52 3 -11 -11 -47 -217 -57 -322 -5 -64 -9 -75 -29 -84 -44 -20 -40 -118 4 -118 9 0 41 9 70 20 29 11 72 20 97 20 40 0 47 4 67 33 l22 34 20 -24 c27 -32 91 -41 133 -19 53 27 123 155 139 255 8 52 -12 145 -37 167 -11 10 -35 23 -52 29 -18 6 -31 17 -29 24 2 8 -3 11 -12 8 -9 -4 -18 -2 -21 2 -9 15 -41 19 -57 7z m94 -246 c-6 -41 -34 -101 -56 -119 -13 -11 -16 -9 -22 14 -12 49 2 158 26 205 l24 45 17 -55 c9 -31 14 -70 11 -90z" fill="#6096b4"/>
</g>
</svg>